<svg xmlns="http://www.w3.org/2000/svg" viewBox="0 0 240.8 176.6"><defs><linearGradient id="a" x1="1.2" x2=".4" y1=".5" y2=".5" gradientUnits="objectBoundingBox"><stop offset="0" stop-color="#faa584"/><stop offset=".3" stop-color="#f04837"/><stop offset="1" stop-color="#b52025"/></linearGradient><filter id="b" width="64.6" height="47" x="132.4" y="114" filterUnits="userSpaceOnUse"><feOffset dy="3" input="SourceAlpha"/><feGaussianBlur result="blur" stdDeviation="3"/><feFlood flood-color="#c32328"/><feComposite in2="blur" operator="in"/><feComposite in="SourceGraphic"/></filter></defs><g data-name="Group 21495" transform="translate(-5020.8 -2089.5)"><path d="M5220.5 2264c-21.7 4.7-44 .2-65.7-2-14.3-1.4-28.1.6-42.5 1.6-36.5 2.7-77-2-88.6-35.7-9.8-28.2 6-69.9 39.8-86.4a64 64 0 0 1 35.3-5.6c7 .7 14.8 3.3 22.4.5 8-3 13.8-11.2 19.2-17.2a112 112 0 0 1 27.1-24.2c24.6-13.7 39.3-.3 46.6 21.7 3.6 10.8 5.5 22 8.4 32.8 4.1 15.5 13 26.7 23 39.2 9 11 17.3 24 16 38-1.7 16-16.1 29.1-32.1 34.7a77.3 77.3 0 0 1-8.9 2.5" fill="#f7f7f7" data-name="Path 20457"/><path d="M5035.1 2221.4c0-55.2 45.9-99.9 102.5-99.9s102.4 44.7 102.4 100" fill="none" stroke="#000" stroke-dasharray="3.6 3.6" stroke-miterlimit="10" stroke-width=".9" data-name="Path 20458"/><path d="M5056.8 2202.5h142s11.9 10.4 13.4 21.4-7.4 22.6-7.4 22.6h-148c-15.2 0-27.5-9.9-27.5-22s12.3-22 27.5-22Z" fill="#9f0d00" data-name="Path 28697"/><path d="M5184.4 2197.2s30.3-.4 34.8 2.8c-.7 3.9-41 7.8-41 7.8Z" fill="#b32024" data-name="Path 28695"/><g data-name="Group 21490"><g data-name="Character 3"><g data-name="Group 21059"><g data-name="Group 21054"><path d="M5187.4 2152.7c-.5-1-1.3-1.8-1.7-2.9-.6-1.4-.5-3.1-1.5-4.3-1.5-1.9-4.5-1.2-6.7-2.1-1.7-.7-3-2.3-4.8-2.8a7 7 0 0 0-4.7.9 18 18 0 0 1-4.5 2 32 32 0 0 1-3.5.2 4.6 4.6 0 0 0-3.1 1.3 2.2 2.2 0 0 0 0 3c-2-.2-3.8 2-3.6 4a5.6 5.6 0 0 0 3.7 4.6 12.3 12.3 0 0 0 6.1.4c5.8-.8 11.5-3.4 15.2-8l7.8 14.6a25.5 25.5 0 0 0 2-5.3 8.6 8.6 0 0 0-.7-5.6Z" fill="#263238" data-name="Path 28423"/><g data-name="Group 21053"><g data-name="Group 21027"><g data-name="Group 21026"><g data-name="Group 21025"><g data-name="Group 20933"><g data-name="Group 20932"><g data-name="Group 20931"><g data-name="Group 20920"><g data-name="Group 20919"><g data-name="Group 20918"><g data-name="Group 20917"><g data-name="Group 20916"><g data-name="Group 20915"><g data-name="Group 20914"><g data-name="Group 20913"><g data-name="Group 20912"><g data-name="Group 20911"><path d="m5184.4 2156.4 5.7 28.6a8.7 8.7 0 0 1-7.2 10.3 8.7 8.7 0 0 1-9.8-7l-.8-4s-7.4-.4-9.4-7.5a197 197 0 0 1-3.5-16 13.7 13.7 0 0 1 10-15.7l.7-.2c7.6-1.5 13 4 14.3 11.5Z" fill="#eacdcd" data-name="Path 28424"/></g></g></g></g></g></g></g></g></g></g><g data-name="Group 20930"><g data-name="Group 20929"><g data-name="Group 20928"><g data-name="Group 20927"><g data-name="Group 20926"><g data-name="Group 20925"><g data-name="Group 20924"><g data-name="Group 20923"><g data-name="Group 20922"><g data-name="Group 20921"><path d="M5172.3 2184.1a17.1 17.1 0 0 0 8.5-5s-.8 5.6-8 6.9Z" fill="#ddbcbc" data-name="Path 28425"/></g></g></g></g></g></g></g></g></g></g></g></g></g><g data-name="Group 21024"><g data-name="Group 21023"><g data-name="Group 21002"><g data-name="Group 21001"><g data-name="Group 21000"><g data-name="Group 20955"><g data-name="Group 20943"><g data-name="Group 20942"><g data-name="Group 20941"><g data-name="Group 20940"><g data-name="Group 20939"><g data-name="Group 20938"><g data-name="Group 20937"><g data-name="Group 20936"><g data-name="Group 20935"><g data-name="Group 20934"><path d="M5163.9 2165.6a1 1 0 0 0 1.2.7 1 1 0 0 0 .9-1.2 1 1 0 0 0-1.3-.7 1 1 0 0 0-.8 1.2Z" fill="#263238" data-name="Path 28426"/></g></g></g></g></g></g></g></g></g></g><g data-name="Group 20954"><g data-name="Group 20953"><g data-name="Group 20952"><g data-name="Group 20951"><g data-name="Group 20950"><g data-name="Group 20949"><g data-name="Group 20948"><g data-name="Group 20947"><g data-name="Group 20946"><g data-name="Group 20945"><g data-name="Group 20944"><path d="M5161.9 2163.8c.2 0 .8-.7 1.9-1 1-.3 2 0 2 0 .1-.2 0-.4-.5-.5a2.9 2.9 0 0 0-1.7 0 2.8 2.8 0 0 0-1.5.8c-.2.4-.3.6-.2.7Z" fill="#263238" data-name="Path 28427"/></g></g></g></g></g></g></g></g></g></g></g></g><g data-name="Group 20977"><g data-name="Group 20965"><g data-name="Group 20964"><g data-name="Group 20963"><g data-name="Group 20962"><g data-name="Group 20961"><g data-name="Group 20960"><g data-name="Group 20959"><g data-name="Group 20958"><g data-name="Group 20957"><g data-name="Group 20956"><path d="M5173.7 2162.8a1 1 0 0 0 1.3.8 1 1 0 0 0 .8-1.2 1 1 0 0 0-1.3-.8 1 1 0 0 0-.8 1.2Z" fill="#263238" data-name="Path 28428"/></g></g></g></g></g></g></g></g></g></g><g data-name="Group 20976"><g data-name="Group 20975"><g data-name="Group 20974"><g data-name="Group 20973"><g data-name="Group 20972"><g data-name="Group 20971"><g data-name="Group 20970"><g data-name="Group 20969"><g data-name="Group 20968"><g data-name="Group 20967"><g data-name="Group 20966"><path d="M5172.7 2161.2c.1 0 .8-.7 1.9-1 1-.3 2 0 2 0 .1-.2 0-.4-.5-.5a2.9 2.9 0 0 0-1.7-.1 2.8 2.8 0 0 0-1.5 1c-.2.3-.3.5-.2.6Z" fill="#263238" data-name="Path 28429"/></g></g></g></g></g></g></g></g></g></g></g></g><g data-name="Group 20988"><g data-name="Group 20987"><g data-name="Group 20986"><g data-name="Group 20985"><g data-name="Group 20984"><g data-name="Group 20983"><g data-name="Group 20982"><g data-name="Group 20981"><g data-name="Group 20980"><g data-name="Group 20979"><g data-name="Group 20978"><path d="M5170.9 2170.3a7.5 7.5 0 0 0-2 .2c-.2 0-.5 0-.6-.2a1.5 1.5 0 0 1 0-.8l.3-2.4a37.8 37.8 0 0 0 .4-6 37.8 37.8 0 0 0-1 6l-.1 2.3a1.7 1.7 0 0 0 0 1.2.7.7 0 0 0 .7.2 2 2 0 0 0 .5 0 7.4 7.4 0 0 0 1.8-.5Z" fill="#263238" data-name="Path 28430"/></g></g></g></g></g></g></g></g></g></g></g><g data-name="Group 20999"><g data-name="Group 20998"><g data-name="Group 20997"><g data-name="Group 20996"><g data-name="Group 20995"><g data-name="Group 20994"><g data-name="Group 20993"><g data-name="Group 20992"><g data-name="Group 20991"><g data-name="Group 20990"><g data-name="Group 20989"><path d="M5173.6 2174.6c-.1 0-.6 1-2 1.4s-2.4-.3-2.5-.1l.7.6a3 3 0 0 0 2 .2 2.7 2.7 0 0 0 1.7-1.2c.2-.5.2-.8.1-.9Z" fill="#263238" data-name="Path 28431"/></g></g></g></g></g></g></g></g></g></g></g></g></g></g><g data-name="Group 21012"><g data-name="Group 21011"><g data-name="Group 21010"><g data-name="Group 21009"><g data-name="Group 21008"><g data-name="Group 21007"><g data-name="Group 21006"><g data-name="Group 21005"><g data-name="Group 21004"><g data-name="Group 21003"><path d="M5171.3 2156.2c.2.2 1.2-.2 2.5-.4 1.4-.2 2.5 0 2.6-.4 0-.1-.2-.4-.7-.6a4.5 4.5 0 0 0-4 .6c-.3.3-.5.6-.4.8Z" fill="#263238" data-name="Path 28432"/></g></g></g></g></g></g></g></g></g></g><g data-name="Group 21022"><g data-name="Group 21021"><g data-name="Group 21020"><g data-name="Group 21019"><g data-name="Group 21018"><g data-name="Group 21017"><g data-name="Group 21016"><g data-name="Group 21015"><g data-name="Group 21014"><g data-name="Group 21013"><path d="M5161 2159.6c.3.2 1-.2 2-.5.8-.3 1.6-.2 1.8-.6 0 0-.2-.3-.6-.5a2.8 2.8 0 0 0-3 1c-.2.3-.2.5-.1.6Z" fill="#263238" data-name="Path 28433"/></g></g></g></g></g></g></g></g></g></g></g></g></g></g></g><g data-name="Group 21049"><g data-name="Group 21037"><g data-name="Group 21036"><g data-name="Group 21035"><g data-name="Group 21034"><g data-name="Group 21033"><g data-name="Group 21032"><g data-name="Group 21031"><g data-name="Group 21030"><g data-name="Group 21029"><g data-name="Group 21028"><path d="M5185.2 2161.9c.1-.1 4.5-2.8 5.7 2.1s-4 5-4.1 5l-1.6-7.1Z" fill="#eacdcd" data-name="Path 28434"/></g></g></g></g></g></g></g></g></g></g><g data-name="Group 21048"><g data-name="Group 21047"><g data-name="Group 21046"><g data-name="Group 21045"><g data-name="Group 21044"><g data-name="Group 21043"><g data-name="Group 21042"><g data-name="Group 21041"><g data-name="Group 21040"><g data-name="Group 21039"><g data-name="Group 21038"><path d="M5187.9 2166.7h.2a.9.9 0 0 0 .7 0 2.2 2.2 0 0 0 .5-2.2 2.9 2.9 0 0 0-.5-1.1 1 1 0 0 0-.8-.5.4.4 0 0 0-.4.3v.3s-.2 0-.2-.3a.6.6 0 0 1 .1-.4.7.7 0 0 1 .5-.2 1.2 1.2 0 0 1 1 .6 3 3 0 0 1 .7 1.3 2.3 2.3 0 0 1-.8 2.4 1 1 0 0 1-.8 0c-.2 0-.2-.2-.2-.2Z" fill="#ddbcbc" data-name="Path 28435"/></g></g></g></g></g></g></g></g></g></g></g></g><g data-name="Group 21052"><g data-name="Group 21051"><g data-name="Group 21050"><path d="M5157.6 2154.1c1 1.8 5.4 2.2 8.5 1 3-1 4.2-2.7 5.7-4.7a3 3 0 0 1 2.7-1.7 3.4 3.4 0 0 1 1.7.6 5.4 5.4 0 0 1 2.8 4.2 25 25 0 0 0 3.5 9c.3.5.6 1 1.3 1a1.5 1.5 0 0 0 1-.6 5.6 5.6 0 0 0 .8-4 20.7 20.7 0 0 0-2-7.8 14 14 0 0 0-5.6-5.9 13.3 13.3 0 0 0-10-1 16.4 16.4 0 0 0-8.3 5.7 9.6 9.6 0 0 0-2 4.2" fill="#263238" data-name="Path 28436"/></g></g></g></g></g><g data-name="Group 21055"><path d="M5160.9 2143.7h-.6a6.3 6.3 0 0 0-1.6.2 4.6 4.6 0 0 0-1 .5 3.7 3.7 0 0 0-.6.4 2.7 2.7 0 0 0-.4.5 2.3 2.3 0 0 0-.4 1.4 1.9 1.9 0 0 0 .3.8 2.3 2.3 0 0 0 .5.6l.3.2h-.3a3.3 3.3 0 0 0-2.9 1.2 3.3 3.3 0 0 0-.8 2 4 4 0 0 0 .4 2 6.7 6.7 0 0 0 1 1.6 5 5 0 0 0 1.3 1 7.5 7.5 0 0 0 2.3.8l.7.1a1 1 0 0 1 .2 0 1.1 1.1 0 0 1-.2 0 12.1 12.1 0 0 1-.7 0 7.2 7.2 0 0 1-2.3-.8 5 5 0 0 1-1.4-1 6.8 6.8 0 0 1-1-1.6 4.2 4.2 0 0 1-.5-2.1 3.5 3.5 0 0 1 .9-2.1 4.2 4.2 0 0 1 1.4-1.1 2.8 2.8 0 0 1 1.6-.3v.2a2.4 2.4 0 0 1-.7-.6 2 2 0 0 1-.2-.9 2.4 2.4 0 0 1 .3-1.5 2.9 2.9 0 0 1 .5-.5 3.8 3.8 0 0 1 .6-.4 4.6 4.6 0 0 1 1-.5 5.9 5.9 0 0 1 1.7-.2h.4a.6.6 0 0 1 .2 0Z" fill="#455a64" data-name="Path 28437"/></g><g data-name="Group 21056"><path d="M5164.3 2155.6a1.2 1.2 0 0 1-.3.1 9.8 9.8 0 0 1-1 .1 9.3 9.3 0 0 1-3-.2 5.7 5.7 0 0 1-1.6-.6 5.5 5.5 0 0 1-1-1 6.2 6.2 0 0 1-.7-.6 1.2 1.2 0 0 1-.2-.3l.9 1a5.6 5.6 0 0 0 2.6 1.4 10.4 10.4 0 0 0 3 .2h1.3Z" fill="#455a64" data-name="Path 28438"/></g><g data-name="Group 21057"><path d="M5185.2 2149.6a2.1 2.1 0 0 0-1.2-.1 2.7 2.7 0 0 0-1 .5 5 5 0 0 0-1 1.2c-.4.5-.6 1-1 1.3a4.8 4.8 0 0 1-.8 1 2.6 2.6 0 0 1-.8.4.8.8 0 0 1-.3.1 3.8 3.8 0 0 0 1-.6 5 5 0 0 0 .8-1l.9-1.3a4.9 4.9 0 0 1 1-1.2 2.7 2.7 0 0 1 1.2-.5 1.8 1.8 0 0 1 .9 0 .7.7 0 0 1 .3.2Z" fill="#455a64" data-name="Path 28439"/></g><g data-name="Group 21058"><path d="M5186.7 2152a4.7 4.7 0 0 0-1.2.4 5.4 5.4 0 0 0-1 .7 9 9 0 0 1-1.4 1 7.8 7.8 0 0 1-2.7 1 6.5 6.5 0 0 1-1 0 1.1 1.1 0 0 1-.2 0l1.2-.2a8.6 8.6 0 0 0 2.6-1 9.8 9.8 0 0 0 1.3-1 5 5 0 0 1 1.2-.6 2.6 2.6 0 0 1 .8-.3.9.9 0 0 1 .4 0Z" fill="#455a64" data-name="Path 28440"/></g></g><g data-name="Group 21067"><path d="M5170.5 2192.9s-7.2 6-8.2 8.4-24.1 46-24.1 46h17.9l14.2-27.6Z" fill="#dbdbdb" data-name="Path 28441"/><g data-name="Group 21060"><path d="M5167.7 2203.6a1.8 1.8 0 0 1 0 .3v.9l.2 3.2.6 10.4a384.9 384.9 0 0 1 .5 13.7v.8a1.8 1.8 0 0 1 0 .3 1.8 1.8 0 0 1 0-.3v-.8l-.2-3.2c0-2.7-.2-6.4-.5-10.5l-.5-10.4a197.2 197.2 0 0 1-.1-3.2v-.9a1.8 1.8 0 0 1 0-.3Z" fill="#263238" data-name="Path 28442"/></g><g data-name="Group 21066"><path d="m5190 2179.8 1.9 3.7s15.5 3.5 18.8 8c4.7 6.5 6.4 55.9 6.4 55.9h-47.5l-2-51.8 5-5.1-.5-4Z" fill="#dbdbdb" data-name="Path 28443"/><g data-name="Group 21061" opacity=".3"><path d="M5203 2240.9a330 330 0 0 0-28.9-41.5l-4.3 3a6.6 6.6 0 0 0 1.8 5.7c1.3 1.4 3 2.5 4 4.2a16.6 16.6 0 0 1 1.6 5.3c2 9.1 7.4 17.4 14.2 23.8 2.5 2.2 5.3 4.4 8.6 4.8 1.5.2 3.4-.3 4-1.8.3-1.2-.3-2.5-1-3.5Z" data-name="Path 28444"/></g><g data-name="Group 21063"><path d="m5199 2207 2.8 11.9-13.8-11-8.8 9s18.2 29 27 29.6c6.4.4 9.6-.7 12-4.5 2.7-4.4 1.5-23.2-.4-32.7a79.5 79.5 0 0 0-4-14.1c-2.5-6-5.6-6.9-7.6-7.7l-13.8-4" fill="#dbdbdb" data-name="Path 28445"/><g data-name="Group 21062"><path d="M5192.4 2183.5h.4l1.3.4 4.7 1.4 7.5 2.2a14.8 14.8 0 0 1 2.2 1 9.3 9.3 0 0 1 2 1.5 11.5 11.5 0 0 1 1.7 2 17.7 17.7 0 0 1 1.4 2.6 67.2 67.2 0 0 1 3.7 12 99.5 99.5 0 0 1 2.1 14.2c.2 2.6.4 5.2.4 7.8a67.6 67.6 0 0 1-.2 8.2 19.6 19.6 0 0 1-.8 4.1 5 5 0 0 1-.2.5 3.4 3.4 0 0 1-.2.5 3.8 3.8 0 0 1-.3.5l-.3.4a10.1 10.1 0 0 1-1.5 1.6 8.1 8.1 0 0 1-1.8 1.2 9.5 9.5 0 0 1-2 .7 18.3 18.3 0 0 1-4.4.4 31 31 0 0 1-1.5 0 6.5 6.5 0 0 1-1.4-.3 10 10 0 0 1-2.7-1.2 28.6 28.6 0 0 1-4.4-3.6 84.7 84.7 0 0 1-7.3-8.2 176.2 176.2 0 0 1-11.7-16.5v-.1l8.9-9 13.8 11-2-8.7-.6-2.2v-.6l-.1-.2v.2l.2.6.5 2.2 2 8.7v.2-.1l-13.8-11-8.7 9v-.1a209.8 209.8 0 0 0 11.6 16.5 84.6 84.6 0 0 0 7.3 8.2 28.4 28.4 0 0 0 4.4 3.5 9.8 9.8 0 0 0 2.6 1.2 6.3 6.3 0 0 0 1.4.2h1.5a18.1 18.1 0 0 0 4.3-.3 9.3 9.3 0 0 0 2-.7 8 8 0 0 0 1.8-1.1 10 10 0 0 0 1.4-1.6l.3-.5a3.7 3.7 0 0 0 .3-.4 3.3 3.3 0 0 0 .2-.5 5 5 0 0 0 .2-.5 19.4 19.4 0 0 0 .8-4 67.6 67.6 0 0 0 .3-8.2 65 65 0 0 0-.5-7.7 99.6 99.6 0 0 0-2-14.3 67.3 67.3 0 0 0-3.7-12 17.5 17.5 0 0 0-1.4-2.5 11.4 11.4 0 0 0-1.6-2 9.2 9.2 0 0 0-2-1.5 14.7 14.7 0 0 0-2.2-1l-7.5-2.2-4.7-1.4-1.3-.4-.4-.1Z" fill="#263238" data-name="Path 28446"/></g></g><g data-name="Group 21064"><path d="M5207.7 2227.9s-.1-.7-.5-1.7a16.3 16.3 0 0 0-.7-1.6 15.9 15.9 0 0 0-2.5-3.7 16.4 16.4 0 0 0-1.3-1.3c-.8-.7-1.4-1-1.4-1a2.1 2.1 0 0 1 .4.2 10.8 10.8 0 0 1 1 .7 14.2 14.2 0 0 1 1.4 1.3 14.8 14.8 0 0 1 2.5 3.7 14.3 14.3 0 0 1 .7 1.7 10.8 10.8 0 0 1 .4 1.2 2.1 2.1 0 0 1 0 .5Z" fill="#263238" data-name="Path 28447"/></g><g data-name="Group 21065"><path d="m5203.7 2191.2-1.6.8a9.7 9.7 0 0 0-4.3 7l-.2 1.7a2 2 0 0 1 0-.4 8.3 8.3 0 0 1 0-1.3 9.3 9.3 0 0 1 4.5-7 8.2 8.2 0 0 1 1.1-.7 2 2 0 0 1 .5-.1Z" fill="#263238" data-name="Path 28448"/></g></g></g><g data-name="Group 21086"><g data-name="Group 21076"><path d="m5167 2192.8 2.9-3 5.7 1.5 3.5 2.2 4.6 10.8 3.5 4.3-7.2 7.3-2.8-5.5a18.6 18.6 0 0 1-4.6-4l-2-3.2s-1.9-1-2.3-1.8a4.3 4.3 0 0 1-.3-1.5l1-1.4a3.5 3.5 0 0 1 .2-1.8 1.7 1.7 0 0 1 .7-.6s-.3-1.2.1-1.6a13.6 13.6 0 0 1 2.6-1.3l-2.4-.8s-3 2.7-3.3.4Z" fill="#eacdcd" data-name="Path 28449"/><path d="M5170.6 2203a2.6 2.6 0 0 0-.4-1 1.6 1.6 0 0 0-.4-.4v.2l-.1-.3-.4-.2h.3v-.1l.2-.6v.8a1.5 1.5 0 0 1 .5.4 1.5 1.5 0 0 1 .4.8v.3Zm2.6-4.4a2.8 2.8 0 0 0-1-.2l.3-.1a1.5 1.5 0 0 1 .8.2 1.5 1.5 0 0 1 .6.5v.4a2.6 2.6 0 0 0-.7-.8Zm-4.2-.3a2.7 2.7 0 0 1 1.2-.4 2.7 2.7 0 0 1 1.3 0l-1.2.2-1.3.2Zm6.2-2.1a3.3 3.3 0 0 0-1-.3h.3a1.5 1.5 0 0 1 .8.1 1.5 1.5 0 0 1 .5.6v.3a3 3 0 0 0-.6-.7Zm-5.3 0a3.3 3.3 0 0 1 1.4-.7 3.3 3.3 0 0 1 1.5 0l-1.5.2-1.4.4Zm7.3-.5v-.4a1.8 1.8 0 0 0-.4-.8 1.8 1.8 0 0 0-.7-.5l-.3-.2h.4a1.5 1.5 0 0 1 .8.6 1.5 1.5 0 0 1 .3.9v.4Zm-5.9-2a4.5 4.5 0 0 1 2-.7 8.9 8.9 0 0 1 1.4-.2 1.9 1.9 0 0 1 .6 0l-2 .4a15.8 15.8 0 0 0-2 .5Z" fill="#ddbcbc" stroke="rgba(0,0,0,0)" stroke-miterlimit="10" stroke-width="1" data-name="Union 89"/></g><g data-name="Group 21085"><g data-name="Group 21084"><g fill="#455a64" data-name="Group 21077"><path d="M5169.8 2172s-1.3-1.7-2.9-.7-1.9 4-3.5 4a1.7 1.7 0 0 1-2-1.4 2.8 2.8 0 0 0 1 2.9c1.3 1.4 5.6.9 7.7-2l.4-.5Z" data-name="Path 28459"/><path d="M5169.8 2172s0-2.1 1.7-2.3 4 2 5.4 1a1.7 1.7 0 0 0 .5-2.3 2.8 2.8 0 0 1 1.1 2.8c-.2 2-4 4.2-7.3 3.2l-.7-.1Z" data-name="Path 28460"/></g><g data-name="Group 21078"><path d="M5161.4 2174v.5a2 2 0 0 0 .4 1.1 2 2 0 0 0 1.6.7 2.9 2.9 0 0 0 1.9-1.1l1.3-2a4.4 4.4 0 0 1 .8-.6 2.8 2.8 0 0 1 .8-.5 2 2 0 0 1 1.2 0 1.3 1.3 0 0 1 .4.1v.1l-.4-.1a2 2 0 0 0-1.2 0 2.8 2.8 0 0 0-.7.5 4.3 4.3 0 0 0-.7.7c-.5.6-.8 1.3-1.4 1.9a3 3 0 0 1-2 1.2 2 2 0 0 1-1.7-.8 2 2 0 0 1-.4-1.2 1.7 1.7 0 0 1 0-.4Z" fill="#263238" data-name="Path 28461"/></g><g data-name="Group 21079"><path d="M5170 2172.8a5.5 5.5 0 0 0-1.2.7 10.6 10.6 0 0 0-1 1.2 12.6 12.6 0 0 1-1.2 1.4 3.8 3.8 0 0 1-3.1 1 3.4 3.4 0 0 1-1-.2 1.1 1.1 0 0 1-.3-.2 5.8 5.8 0 0 0 1.3.3 3.9 3.9 0 0 0 1.5-.2 3.8 3.8 0 0 0 1.5-.9 14 14 0 0 0 1.2-1.3 9.3 9.3 0 0 1 1-1.1 3.7 3.7 0 0 1 .9-.6 1.3 1.3 0 0 1 .3-.1Z" fill="#263238" data-name="Path 28462"/></g><g data-name="Group 21080"><path d="M5177.6 2168.9h.1a1.2 1.2 0 0 1 .1.3 1.8 1.8 0 0 1 0 1.2 1.9 1.9 0 0 1-.4.7 1.7 1.7 0 0 1-.8.5 3.6 3.6 0 0 1-2.1-.3 6.8 6.8 0 0 0-2-.6 2.7 2.7 0 0 0-1.6.4 2.9 2.9 0 0 0-.8.8l-.3.3a2 2 0 0 1 .2-.4 2.7 2.7 0 0 1 .8-.8 2.8 2.8 0 0 1 1.7-.5 6.6 6.6 0 0 1 2 .6 3.5 3.5 0 0 0 2 .3 1.6 1.6 0 0 0 .8-.4 1.8 1.8 0 0 0 .4-.6 1.8 1.8 0 0 0 0-1.1v-.4Z" fill="#263238" data-name="Path 28463"/></g><g data-name="Group 21081"><path d="M5178.3 2169.6a1.2 1.2 0 0 1 0 .4 3.2 3.2 0 0 1-.2 1.1 3.3 3.3 0 0 1-1 1.4 3.4 3.4 0 0 1-1.9.8 6.1 6.1 0 0 1-2-.3 8 8 0 0 0-1.6-.3 3.2 3.2 0 0 0-1.5.2 1 1 0 0 1 .3-.2 2.8 2.8 0 0 1 1.2-.2 7.4 7.4 0 0 1 1.6.3 6.2 6.2 0 0 0 2 .3 3.3 3.3 0 0 0 1.8-.7 3.3 3.3 0 0 0 1-1.3 4.4 4.4 0 0 0 .3-1.5Z" fill="#263238" data-name="Path 28464"/></g><g data-name="Group 21082"><path d="M5167.7 2176.6a18.7 18.7 0 0 1 2.5-2.8 18.7 18.7 0 0 1-2.5 2.8Z" fill="#263238" data-name="Path 28465"/></g><g data-name="Group 21083"><path d="M5173.8 2174.1a12 12 0 0 1-3.5-.3 26.8 26.8 0 0 1 3.5.3Z" fill="#263238" data-name="Path 28466"/></g></g></g></g></g><g data-name="Character 1"><g data-name="Group 21276"><g data-name="Group 21095"><g data-name="Group 21091"><path d="M5140 2197.9a7.5 7.5 0 0 0 .2-1 3.7 3.7 0 0 0 0-1.3 3.7 3.7 0 0 0-1.2-2.2l.3-2a2.6 2.6 0 0 1 .2-.8.8.8 0 0 1 0 .2l-.1.6-.2 2v-.1a3.7 3.7 0 0 1 .7.8 3.7 3.7 0 0 1 .5 1.5 3.6 3.6 0 0 1 0 1.2 3.3 3.3 0 0 1-.3.8.8.8 0 0 1-.2.3Z" fill="#eb996e" data-name="Path 28468"/></g><g data-name="Group 21092"><path d="M5146 2194.7a5.7 5.7 0 0 1 .5-.7 3.1 3.1 0 0 0 .6-2l-.2-1a1.2 1.2 0 0 1 .3-1 .8.8 0 0 1 .6-.2h.2-.2a.7.7 0 0 0-.5.3 1.1 1.1 0 0 0-.2.8l.2 1.2a2.4 2.4 0 0 1-.2 1.1 4.3 4.3 0 0 1-.5.9 3 3 0 0 1-.6.6Z" fill="#eb996e" data-name="Path 28469"/></g><g data-name="Group 21093"><path d="M5143.7 2193.7a9.9 9.9 0 0 1 .7-.9 5.4 5.4 0 0 0 1.2-2.4 3 3 0 0 0 0-.8 5.1 5.1 0 0 0 0-.7 1.6 1.6 0 0 1 0-1.2.7.7 0 0 1 .4-.3.7.7 0 0 1 .4 0c.2 0 .2.2.2.2l-.2-.2a.6.6 0 0 0-.7.3 1.5 1.5 0 0 0 0 1.2 4.9 4.9 0 0 1 .1.7 3 3 0 0 1 0 .8 5.1 5.1 0 0 1-1.3 2.5l-.6.6-.2.2Z" fill="#eb996e" data-name="Path 28470"/></g><g data-name="Group 21094"><path d="M5145.3 2185.9a2.2 2.2 0 0 0-.4.9 4.8 4.8 0 0 0 0 1 5.7 5.7 0 0 1-.2 1.5 5 5 0 0 1-1 2.3 4.3 4.3 0 0 1-.6.5l-.3.2.7-.8a5.3 5.3 0 0 0 1-2.2 6 6 0 0 0 .2-1.4 4.4 4.4 0 0 1 0-1.1 1.3 1.3 0 0 1 .6-1Z" fill="#eb996e" data-name="Path 28471"/></g></g><g data-name="Group 21235"><g data-name="Group 21099"><path d="M5066.5 2181.4c.9-3.3 3-6 4.8-8.9a61.3 61.3 0 0 0 5.6-10.5c.8-2 2-4.6 4.2-5l18.2-2.3c3.8.2 7 3.4 8.3 7s1.2 7.6 1.2 11.5 0 7.8 1.6 11.3a9.9 9.9 0 0 1 1.4 3.8 4.6 4.6 0 0 1-1.5 3.7c-1.4 1.5.6 5.3-.7 6.1-1.9 1.2-7.4-.7-9.6-.6l-6.8.5c-2 .2-4 .3-6-.5-1.5-.8-2.8-2.3-4.6-2.7-2-.5-4.2.7-6.3.9a7 7 0 0 1-7.2-5.2c-2.8-1.8-3.5-5.8-2.6-9.1Z" fill="#263238" data-name="Path 28476"/></g><g data-name="Group 21229"><g data-name="Group 21101"><g data-name="Group 21100"><path d="M5105.9 2165.4c-.2-4.7-5.2-9.5-10-9l-15.2 2.6v2.5l.4 31.4s1.2 10.1 9.7 9.7c7.7-.4 7.4-8.5 7.4-8.5l-.1-6s6.2 0 7.5-8c.7-3.8.5-9.5.3-14.7Z" fill="#eacdcd" data-name="Path 28477"/></g></g><g data-name="Group 21228"><g data-name="Group 21201"><g data-name="Group 21200"><g data-name="Group 21199"><g data-name="Group 21129"><g data-name="Group 21114"><g data-name="Group 21113"><g data-name="Group 21112"><g data-name="Group 21111"><g data-name="Group 21110"><g data-name="Group 21109"><g data-name="Group 21108"><g data-name="Group 21107"><g data-name="Group 21106"><g data-name="Group 21105"><g data-name="Group 21104"><g data-name="Group 21103"><g data-name="Group 21102"><path d="M5102.4 2171.5a1 1 0 0 1-1 1 1 1 0 0 1-1-.9 1 1 0 0 1 1-1 1 1 0 0 1 1 1Z" fill="#263238" data-name="Path 28478"/></g></g></g></g></g></g></g></g></g></g></g></g></g><g data-name="Group 21128"><g data-name="Group 21127"><g data-name="Group 21126"><g data-name="Group 21125"><g data-name="Group 21124"><g data-name="Group 21123"><g data-name="Group 21122"><g data-name="Group 21121"><g data-name="Group 21120"><g data-name="Group 21119"><g data-name="Group 21118"><g data-name="Group 21117"><g data-name="Group 21116"><g data-name="Group 21115"><path d="M5104.2 2169.8c-.1.1-.9-.4-2-.5-1 0-1.9.6-2 .4 0 0 0-.3.4-.5a2.8 2.8 0 0 1 1.6-.5 2.6 2.6 0 0 1 1.6.6c.3.2.4.4.4.5Z" fill="#263238" data-name="Path 28479"/></g></g></g></g></g></g></g></g></g></g></g></g></g></g></g><g data-name="Group 21157"><g data-name="Group 21142"><g data-name="Group 21141"><g data-name="Group 21140"><g data-name="Group 21139"><g data-name="Group 21138"><g data-name="Group 21137"><g data-name="Group 21136"><g data-name="Group 21135"><g data-name="Group 21134"><g data-name="Group 21133"><g data-name="Group 21132"><g data-name="Group 21131"><g data-name="Group 21130"><path d="M5092.1 2171.5a1 1 0 0 1-1 1 1 1 0 0 1-1-.9 1 1 0 0 1 1-1 1 1 0 0 1 1 1Z" fill="#263238" data-name="Path 28480"/></g></g></g></g></g></g></g></g></g></g></g></g></g><g data-name="Group 21156"><g data-name="Group 21155"><g data-name="Group 21154"><g data-name="Group 21153"><g data-name="Group 21152"><g data-name="Group 21151"><g data-name="Group 21150"><g data-name="Group 21149"><g data-name="Group 21148"><g data-name="Group 21147"><g data-name="Group 21146"><g data-name="Group 21145"><g data-name="Group 21144"><g data-name="Group 21143"><path d="M5093 2170.2c0 .1-.8-.4-1.9-.5-1 0-1.9.6-2 .4 0 0 .1-.3.5-.5a2.8 2.8 0 0 1 1.6-.5 2.7 2.7 0 0 1 1.5.5c.3.3.5.5.4.6Z" fill="#263238" data-name="Path 28481"/></g></g></g></g></g></g></g></g></g></g></g></g></g></g></g><g data-name="Group 21171"><g data-name="Group 21170"><g data-name="Group 21169"><g data-name="Group 21168"><g data-name="Group 21167"><g data-name="Group 21166"><g data-name="Group 21165"><g data-name="Group 21164"><g data-name="Group 21163"><g data-name="Group 21162"><g data-name="Group 21161"><g data-name="Group 21160"><g data-name="Group 21159"><g data-name="Group 21158"><path d="M5097.6 2177.5a8.4 8.4 0 0 1 1.7-.3c.3 0 .6 0 .6-.2.1-.2 0-.4-.1-.7l-.8-1.8c-.3-.6-1.7-4.3-1.7-4.7a28 28 0 0 1 2.1 4.6l.8 1.8a1.2 1.2 0 0 1 0 .9.7.7 0 0 1-.4.3 2.2 2.2 0 0 1-.4 0 8.3 8.3 0 0 1-1.8 0Z" fill="#263238" data-name="Path 28482"/></g></g></g></g></g></g></g></g></g></g></g></g></g></g><g data-name="Group 21184"><g data-name="Group 21183"><g data-name="Group 21182"><g data-name="Group 21181"><g data-name="Group 21180"><g data-name="Group 21179"><g data-name="Group 21178"><g data-name="Group 21177"><g data-name="Group 21176"><g data-name="Group 21175"><g data-name="Group 21174"><g data-name="Group 21173"><g data-name="Group 21172"><path d="M5098.1 2188.2a20 20 0 0 1-10.4-3s2.5 5.5 10.4 5Z" fill="#ddbcbc" data-name="Path 28483"/></g></g></g></g></g></g></g></g></g></g></g></g></g><g data-name="Group 21198"><g data-name="Group 21197"><g data-name="Group 21196"><g data-name="Group 21195"><g data-name="Group 21194"><g data-name="Group 21193"><g data-name="Group 21192"><g data-name="Group 21191"><g data-name="Group 21190"><g data-name="Group 21189"><g data-name="Group 21188"><g data-name="Group 21187"><g data-name="Group 21186"><g data-name="Group 21185"><path d="M5094.3 2177.5c.2 0 .2 1.2 1.2 2s2.2.8 2.2 1c0 0-.2.2-.8.2a3 3 0 0 1-1.9-.7 2.5 2.5 0 0 1-.8-1.7l.1-.8Z" fill="#263238" data-name="Path 28484"/></g></g></g></g></g></g></g></g></g></g></g></g></g></g></g></g></g><g data-name="Group 21214"><g data-name="Group 21213"><g data-name="Group 21212"><g data-name="Group 21211"><g data-name="Group 21210"><g data-name="Group 21209"><g data-name="Group 21208"><g data-name="Group 21207"><g data-name="Group 21206"><g data-name="Group 21205"><g data-name="Group 21204"><g data-name="Group 21203"><g data-name="Group 21202"><path d="M5094 2165.9c0 .3-1 0-2.1.1-1.2 0-2 .4-2.2 0 0 0 .1-.4.5-.7a3.1 3.1 0 0 1 1.7-.6 2.8 2.8 0 0 1 1.7.5c.3.3.5.5.5.7Z" fill="#263238" data-name="Path 28485"/></g></g></g></g></g></g></g></g></g></g></g></g></g><g data-name="Group 21227"><g data-name="Group 21226"><g data-name="Group 21225"><g data-name="Group 21224"><g data-name="Group 21223"><g data-name="Group 21222"><g data-name="Group 21221"><g data-name="Group 21220"><g data-name="Group 21219"><g data-name="Group 21218"><g data-name="Group 21217"><g data-name="Group 21216"><g data-name="Group 21215"><path d="M5104.4 2165.6c-.2.3-1 0-2 .1-.9 0-1.7.3-1.9 0 0-.1 0-.4.4-.7a2.4 2.4 0 0 1 1.5-.6 2.5 2.5 0 0 1 1.6.5c.3.3.5.6.4.7Z" fill="#263238" data-name="Path 28486"/></g></g></g></g></g></g></g></g></g></g></g></g></g></g></g><g data-name="Group 21230"><path d="M5077.4 2164.1h.4a12.8 12.8 0 0 1 1-5.6 11.3 11.3 0 0 1 7.7-6.1 22.2 22.2 0 0 1 9.8.2c1.6.4 4.2 1.3 5 2.9.5.7-1.3 1.4-1.6 2.2a11.2 11.2 0 0 1-8.7 6.8 5.2 5.2 0 0 0-2.5.7 5.2 5.2 0 0 0-1.7 2.7 10.8 10.8 0 0 0-.3 1.5 24.2 24.2 0 0 1-.5 4.2c-.5 1.7-2 3-2.1 4.8-.2 2.8 3.6 4.6 3.5 7.4a7.3 7.3 0 0 1-1.4 3.4 4 4 0 0 0-.6 3.5 16.4 16.4 0 0 0 1 1.6c1 1.8-.2 4.3-2.1 5a5.7 5.7 0 0 1-5.7-1.5 13 13 0 0 1-3-5.4 37.1 37.1 0 0 1 1.8-28.3Z" fill="#263238" data-name="Path 28487"/></g></g><g data-name="Group 21261"><g data-name="Group 21241"><path d="M5077.3 2192.8s-7.1 1.8-8.8 4.2-11.6 18-11.5 20a17.7 17.7 0 0 0 2 6.4c1 1.8 4.3 4.6 7 4.4s4.3 0 5.1-1.2 10-18 10-18l-6.7-7.2c-.3-.3-2.5 1-2.5 1Z" fill="#dbdbdb" data-name="Path 28493"/><path d="M5103 2228.7s6.5-28.1 4.6-31c-.4-.7-1.5-2.6-3.2-3l-6.2-2a6 6 0 0 1-5 4c-4.5.4-5-1-5.5-1.4l-2.3-3.1-8 .6-7 3.2 1.2 11.6-4 20s-2.8 14-2.7 15a32.3 32.3 0 0 1-.8 4.8l41.8-.1c.1-4.4-3-12.8-3-12.8Z" fill="#dbdbdb" data-name="Path 28494"/><g data-name="Group 21236"><path d="M5074.8 2199.8a1.6 1.6 0 0 1-.1.3l-.5.8-1.7 2.8a3 3 0 0 0-2 .8 11.2 11.2 0 0 0-1.8 1.9 8 8 0 0 1-1.3 1.4 11.9 11.9 0 0 1-1.5 1 13.3 13.3 0 0 0-2.4 1.5 4.4 4.4 0 0 0-1.2 1.6l-.2.7a.7.7 0 0 1 0-.2 3 3 0 0 1 .1-.5 4.3 4.3 0 0 1 1.2-1.7 12.8 12.8 0 0 1 2.5-1.6 12 12 0 0 0 1.4-1 8 8 0 0 0 1.3-1.3 11 11 0 0 1 1.7-2 3.2 3.2 0 0 1 2.2-.7l1.6-2.7.5-.8a1.6 1.6 0 0 1 .2-.3Z" fill="#263238" data-name="Path 28495"/></g><g data-name="Group 21237" opacity=".3"><path d="M5067.5 2227.8a26 26 0 0 0 11-8.9c1.3-2.2 2-4.7 3.3-6.8.7-1.2 1.6-2.2 2.2-3.3a6.3 6.3 0 0 0 1-3.8 24.2 24.2 0 0 0-2.4 3.2 1.3 1.3 0 0 1-1.8.4c-3 7.4-7.8 13.5-13.3 19.2" data-name="Path 28496"/></g><g data-name="Group 21238"><path d="M5080.8 2208.8a1.1 1.1 0 0 1-.1.3l-.3.6c0 .3-.2.6-.4 1l-.6 1.3a47 47 0 0 1-4.3 7 73 73 0 0 1-5.2 6.3 71.9 71.9 0 0 1-1.8 1.8l-.4.5a1.1 1.1 0 0 1-.2.2 1.1 1.1 0 0 1 .1-.2l.5-.5 1.7-1.9a70 70 0 0 0 5.2-6.3 51.3 51.3 0 0 0 4.3-7c.3-.4.4-.9.6-1.3l.5-1 .2-.5a1.1 1.1 0 0 1 .2-.3Z" fill="#263238" data-name="Path 28497"/></g><g data-name="Group 21240"><path d="M5081 2208.7a1 1 0 0 0 1.5-.3 33 33 0 0 0 3.7-6l-9.2-6.1a1 1 0 0 0-1.5.3l-.7 1.1a378.5 378.5 0 0 1-2 3.5 1 1 0 0 0 .3 1.3Z" fill="#dbdbdb" data-name="Path 28498"/><g data-name="Group 21239"><path d="m5081 2208.7-.3-.2-.9-.7-3.3-2.5-2.2-1.7-1.3-1a1.1 1.1 0 0 1-.4-.7 1.2 1.2 0 0 1 .2-.9l1.8-3.1.5-.8.3-.4a1.4 1.4 0 0 1 .3-.4 1.1 1.1 0 0 1 1-.3 1.4 1.4 0 0 1 .4.3l.5.2a694.8 694.8 0 0 1 6.2 4.1l1.4 1 .7.4.3.3a.2.2 0 0 1 0 .1.4.4 0 0 1 0 .1 1.3 1.3 0 0 1 0 .2 11.4 11.4 0 0 1-.7 1.3 48.8 48.8 0 0 1-.8 1.2l-2.3 3.4a1 1 0 0 1-1 .3.8.8 0 0 1-.4-.2 1.5 1.5 0 0 0 .4.1 1 1 0 0 0 1-.2 90.3 90.3 0 0 0 3-4.6 11.4 11.4 0 0 0 .6-1.3 1 1 0 0 0 0-.2s.1 0 .1 0c0-.1 0 0 0 0l-.3-.3-.7-.5-1.4-1-6.2-4-.5-.3a1.2 1.2 0 0 0-.4-.2 1 1 0 0 0-.8.2 1.3 1.3 0 0 0-.3.4l-.2.4-.5.8-1.8 3a1 1 0 0 0-.2.8 1 1 0 0 0 .3.7l1.3 1 2.2 1.7 3.3 2.5.8.7.3.2Z" fill="#263238" data-name="Path 28499"/></g></g></g><path d="m5135.3 2197.6-13.4 10.9c-2.4-2-15.6-13.2-17.5-13.9l-10.3 15.7 11.5 6.8s13.7 7.9 17.4 7.3 18.8-19.8 18.8-19.8Z" fill="#dbdbdb" data-name="Path 28500"/><g data-name="Group 21259"><path d="M5107.6 2201.7a1.5 1.5 0 0 1 0 .3v.8a81.1 81.1 0 0 1-1.9 12.4l-2 9.5-.6 2.8-.2.8a1.5 1.5 0 0 1-.1.2 1.6 1.6 0 0 1 0-.2l.2-.8.6-2.9 2-9.4a136.7 136.7 0 0 0 2-12.4v-.8a1.5 1.5 0 0 1 0-.3Z" fill="#263238" data-name="Path 28517"/></g><g data-name="Group 21260" opacity=".3"><path d="M5107.5 2203v.6l-2.2 13.4a18.4 18.4 0 0 0 2.2-14Z" data-name="Path 28518"/></g></g><g data-name="Group 21275"><g data-name="Group 21274"><g data-name="Group 21270"><path d="M5087.6 2190.3c0-.5-1.8-3-2.5-3.6s-3.6.6-3.6.6l.8-1.6h1.5c1.4.3 2-1.6 2-1.6l-4.3-.8a1.9 1.9 0 0 0-2 1.1l-1.6 4-.5 8 6.8 4.5a2.3 2.3 0 0 0 .5-.9c.3-.8.1-4.3.6-4.1s2.6-2.6 2.6-2.6l-.3-3Z" fill="#eacdcd" data-name="Path 28545"/><g data-name="Group 21269"><path d="M5087.6 2190.3v.8l.4 2.2a35.4 35.4 0 0 1-1.9 2 5.1 5.1 0 0 1-.4.4 1.6 1.6 0 0 1-.3.2.4.4 0 0 1-.1 0h-.1a1.4 1.4 0 0 0-.1.6v.6l-.2 1.2v1.3a2.8 2.8 0 0 1-.1.4 3.4 3.4 0 0 1-.2.3 2.2 2.2 0 0 1-.4.6l-6.8-4.4v-.1l.3-6.6v-1.5h.1l1.1-2.7.5-1.3a2 2 0 0 1 1.1-1 1.9 1.9 0 0 1 .7-.1 4.6 4.6 0 0 1 .7 0l1.3.3 2.5.5h.1a3.4 3.4 0 0 1-.7 1.4 1.8 1.8 0 0 1-.6.4 1.5 1.5 0 0 1-.7 0h-1.5l-.8 1.5v-.1a16.7 16.7 0 0 1 1.7-.5 5 5 0 0 1 1.6-.2.9.9 0 0 1 .3.2 2 2 0 0 1 .3.2 9.5 9.5 0 0 1 1.1 1.5 11.9 11.9 0 0 1 .9 1.4 2.2 2.2 0 0 1 .1.4 2.6 2.6 0 0 0-.1-.4 13.4 13.4 0 0 0-1-1.4l-.6-1c-.2 0-.3-.3-.5-.4a2 2 0 0 0-.2-.3.8.8 0 0 0-.3 0 4.9 4.9 0 0 0-1.6.1 16.9 16.9 0 0 0-1.7.5h-.2l1-1.6h1.5a1.4 1.4 0 0 0 .6 0 1.7 1.7 0 0 0 .6-.4 3.2 3.2 0 0 0 .6-1.3l.1.1-2.5-.4-1.3-.2a4.5 4.5 0 0 0-.7-.1 1.7 1.7 0 0 0-.6 0 1.8 1.8 0 0 0-1 1l-.5 1.3-1.1 2.7-.1 1.4-.4 6.6 6.7 4.4a2.2 2.2 0 0 0 .3-.6 2 2 0 0 0 .2-.6v-1.3l.2-1.3v-.6a1.3 1.3 0 0 1 .2-.5.2.2 0 0 1 .1 0 .3.3 0 0 0 .2-.1 1.4 1.4 0 0 0 .2-.2 5 5 0 0 0 .4-.3 15.3 15.3 0 0 0 1.9-2 50 50 0 0 1-.3-2.2 8.5 8.5 0 0 1 0-.6 1 1 0 0 1 0-.2Z" fill="#ddbcbc" data-name="Path 28546"/></g></g><g data-name="Group 21271"><path d="m5086.8 2188.4-.7-.2a3.1 3.1 0 0 0-1.6.2 5.2 5.2 0 0 0-1.5.8 4 4 0 0 1-.5.4 2 2 0 0 1 .5-.5 4.4 4.4 0 0 1 1.4-1 3 3 0 0 1 1.7 0 1.3 1.3 0 0 1 .7.3Z" fill="#ddbcbc" data-name="Path 28547"/></g><g data-name="Group 21272"><path d="m5083.8 2190.9.5-.5.4-.5a2 2 0 0 1 .8-.5 1.7 1.7 0 0 1 1.6.3l.4.5a6.4 6.4 0 0 0-.5-.4 1.7 1.7 0 0 0-1.4-.2 3.6 3.6 0 0 0-1.2 1 1.2 1.2 0 0 1-.6.3Z" fill="#ddbcbc" data-name="Path 28548"/></g><g data-name="Group 21273"><path d="m5086 2192 .3.6a.9.9 0 0 1 0 .7 3.7 3.7 0 0 1-.6.6 1.9 1.9 0 0 0-.6 1.3 2.1 2.1 0 0 0 .1.6s-.2-.2-.2-.6a1.5 1.5 0 0 1 0-.7 2.4 2.4 0 0 1 .6-.7 4.5 4.5 0 0 0 .5-.6.8.8 0 0 0 0-.6 3 3 0 0 1 0-.4v-.2Z" fill="#ddbcbc" data-name="Path 28549"/></g></g></g></g></g><g data-name="Character 2"><g data-name="Group 21422"><g data-name="Group 21337"><g data-name="Group 21278"><g data-name="Group 21277"><path d="M5125.8 2166.5h16.3a7.3 7.3 0 0 1 7.4 7.3 34 34 0 0 0 2 14.2 51.1 51.1 0 0 1 2.2 5.1 6.6 6.6 0 0 1-.4 5.4l-5.4-1.5v-1.6a2.4 2.4 0 0 1-1.5 1.6 6.6 6.6 0 0 1-2.9.2 87.4 87.4 0 0 1-16.8-3.1 26 26 0 0 0-4.2 0c-2-8 1.4-19.5 3.3-27.6Z" fill="#263238" data-name="Path 28550"/></g></g><g data-name="Group 21336"><g data-name="Group 21335"><g data-name="Group 21334"><g data-name="Group 21326"><g data-name="Group 21325"><g data-name="Group 21324"><g data-name="Group 21281"><g data-name="Group 21280"><g data-name="Group 21279"><path d="M5123 2173.8c.7-4.2 2.4-8.3 6-10.6 3.1-2.1 6.5-2.5 10.3-2a13.4 13.4 0 0 1 5.4 2.3c2.1 1.5 2.8 4.1 3.7 6.5 1.7 4.8 1 11-.7 12.7l-27.4 15.4c-3.3-2.1-2.6-10-1.2-13.6 1.2-2.7 3.1-7 3.9-10.7Z" fill="#263238" data-name="Path 28551"/></g></g></g><g data-name="Group 21323"><g data-name="Group 21283"><g data-name="Group 21282"><path d="m5129.1 2166.7 12.5-2.5c4-.3 6.4 4.7 6.5 8.7 0 4.4 0 9.8-.7 13-1.4 6.6-6.5 7.2-6.5 7.2l-.2 2.1v2.9c-2 5.2-12.4 3.5-13.2-.4l-.6-28.7a2.3 2.3 0 0 1 2.2-2.3Z" fill="#eacdcd" data-name="Path 28552"/></g></g><g data-name="Group 21287"><g data-name="Group 21286"><g data-name="Group 21285"><g data-name="Group 21284"><path d="M5145.3 2178.1a.8.8 0 0 1-.8.8.8.8 0 0 1-.9-.8.8.8 0 0 1 .9-.8.8.8 0 0 1 .8.8Z" fill="#263238" data-name="Path 28553"/></g></g></g></g><g data-name="Group 21291"><g data-name="Group 21290"><g data-name="Group 21289"><g data-name="Group 21288"><path d="M5146.6 2176.6c-.1.1-.7-.4-1.6-.4s-1.6.4-1.7.3c0 0 0-.3.3-.5a2.3 2.3 0 0 1 1.4-.3 2.2 2.2 0 0 1 1.3.5c.3.2.4.4.3.4Z" fill="#263238" data-name="Path 28554"/></g></g></g></g><g data-name="Group 21295"><g data-name="Group 21294"><g data-name="Group 21293"><g data-name="Group 21292"><path d="M5136.9 2177.3a.8.8 0 0 1-.9.8.8.8 0 0 1-.8-.8.8.8 0 0 1 .9-.8.8.8 0 0 1 .8.8Z" fill="#263238" data-name="Path 28555"/></g></g></g></g><g data-name="Group 21299"><g data-name="Group 21298"><g data-name="Group 21297"><g data-name="Group 21296"><path d="M5137.7 2176s-.7-.4-1.6-.5-1.6.4-1.7.3c0 0 0-.2.3-.4a2.3 2.3 0 0 1 1.4-.4 2.2 2.2 0 0 1 1.3.5c.3.2.4.4.3.5Z" fill="#263238" data-name="Path 28556"/></g></g></g></g><g data-name="Group 21303"><g data-name="Group 21302"><g data-name="Group 21301"><g data-name="Group 21300"><path d="M5140.7 2182.6a6 6 0 0 1 1.5-.2c.2 0 .4 0 .5-.2a1.2 1.2 0 0 0-.2-.7l-.6-1.8a30.5 30.5 0 0 1-1.3-4.7 30.6 30.6 0 0 1 1.7 4.6l.6 1.8a1.4 1.4 0 0 1 0 1 .6.6 0 0 1-.3.3 1.6 1.6 0 0 1-.5 0 6 6 0 0 1-1.4 0Z" fill="#263238" data-name="Path 28557"/></g></g></g></g><g data-name="Group 21307"><g data-name="Group 21306"><g data-name="Group 21305"><g data-name="Group 21304"><path d="M5140.9 2193.1a15.3 15.3 0 0 1-8.9-2.4s2.1 4.6 8.8 4.3Z" fill="#ddbcbc" data-name="Path 28558"/></g></g></g></g><g data-name="Group 21314"><g data-name="Group 21313"><g data-name="Group 21312"><g data-name="Group 21311"><path d="M5137.8 2183.2c.1 0 0 1 1 1.7s1.8.7 1.8.8c0 0-.3.2-.7.2a2.5 2.5 0 0 1-1.6-.7 2.1 2.1 0 0 1-.7-1.4c0-.4.1-.7.2-.6Z" fill="#263238" data-name="Path 28560"/></g></g></g></g><g data-name="Group 21318"><g data-name="Group 21317"><g data-name="Group 21316"><g data-name="Group 21315"><path d="M5138.3 2173.1c-.1.3-1 .2-2.1.3-1 .1-2 .4-2 .2-.2 0 0-.3.3-.6a3.6 3.6 0 0 1 3.2-.3c.4.1.6.3.6.4Z" fill="#263238" data-name="Path 28561"/></g></g></g></g><g data-name="Group 21322"><g data-name="Group 21321"><g data-name="Group 21320"><g data-name="Group 21319"><path d="M5146.7 2174.6c-.2.2-.8-.2-1.7-.4-.8-.2-1.5-.2-1.6-.4 0-.2 0-.3.4-.5a2.6 2.6 0 0 1 1.5 0 2.6 2.6 0 0 1 1.2.8c.3.2.3.5.2.5Z" fill="#263238" data-name="Path 28562"/></g></g></g></g></g></g></g></g><g data-name="Group 21328"><g data-name="Group 21327"><path d="M5141.7 2163.7a14.7 14.7 0 0 1-1.7 7.8 5.4 5.4 0 0 1-1.4 1.8 2.4 2.4 0 0 1-2.1.4 9 9 0 0 0 2.2-5 19.4 19.4 0 0 1-3.3 5.1 6.6 6.6 0 0 1-5.6 2l.3-1.3a4.7 4.7 0 0 1-1.8 2.4 2.4 2.4 0 0 1-2.9-.1c1-3.3-.7-7 .8-10 1-2.1 3.4-3.2 5.7-3.8a18.7 18.7 0 0 1 9.7.4" fill="#263238" data-name="Path 28563"/></g></g><g data-name="Group 21333"><g data-name="Group 21330"><g data-name="Group 21329"><path d="M5141.4 2163.7v.2-.2Z" fill="#263238" data-name="Path 28564"/></g></g><g data-name="Group 21332"><g data-name="Group 21331"><path d="m5141.4 2163.9.4-.1c1.3-.6 2.2-1.2 4 .6a12 12 0 0 1 2.3 4 15.3 15.3 0 0 1 1.2 4.1 17.6 17.6 0 0 1-.3 5 5.7 5.7 0 0 1-1.8-3.4 17 17 0 0 0-.9-4 10.2 10.2 0 0 1 0 3.4 1.4 1.4 0 0 1-.5.8.6.6 0 0 1-.8 0 7.2 7.2 0 0 0 .3-4 20.5 20.5 0 0 0-1.2-3.9 19.8 19.8 0 0 1-.8 6.7 1.7 1.7 0 0 1-.4.8 1.6 1.6 0 0 1-1.4.2 3.3 3.3 0 0 0-1.4-.2 19 19 0 0 0 1.3-10Z" fill="#263238" data-name="Path 28565"/></g></g></g></g></g></g></g><g data-name="Group 21389"><path d="m5128.4 2195.7-10.7 3.1-3 36s-4.7 11.8-4.7 12.4l38.2.1-4.6-15.3s5.2-25.2 5.2-26.6l1.2-4.7a1.2 1.2 0 0 0-.7-1.4l-8.4-2.5s-6.8 5.9-12.5-1Z" fill="#da3c4a" data-name="Path 28566"/><g data-name="Group 21378"><g data-name="Group 21372"><g data-name="Group 21371"><g data-name="Group 21370"><g data-name="Group 21339"><g data-name="Group 21338"><path d="M5122 2247.3h5.1l.3-7c-.4-.1-9.7-1.2-10.3-1l-2 8h7Z" fill="#eacdcd" data-name="Path 28567"/></g></g><g data-name="Group 21369"><g data-name="Group 21368"><g data-name="Group 21365"><g data-name="Group 21364"><g data-name="Group 21342"><g data-name="Group 21341"><g data-name="Group 21340"><path d="M5115.7 2247.3h.1c.8.1 4.3-.2 4.3-.2.2-.4-.2-1.8-.6-1.9s-4.2.3-4.2.3-.6.1-.7 1.1c-.1.6 1 .7 1 .7Z" fill="#eacdcd" data-name="Path 28568"/></g></g></g><g data-name="Group 21345"><g data-name="Group 21344"><g data-name="Group 21343"><path d="M5114.4 2245.4h.2c.7 0 4 0 4.2-.5.2-.5-.1-1.6-.6-1.7s-4.2.3-4.2.3-.6.1-.7 1.1c0 .7 1.1.8 1.1.8Z" fill="#eacdcd" data-name="Path 28569"/></g></g></g><g data-name="Group 21348"><g data-name="Group 21347"><g data-name="Group 21346"><path d="M5113.8 2243.4h.1c.8.1 4.1 0 4.3-.4.1-.5-.2-1.6-.6-1.7s-4.2.3-4.2.3-.6 0-.7 1c-.1.7 1 .8 1 .8Z" fill="#eacdcd" data-name="Path 28570"/></g></g></g><g data-name="Group 21351"><g data-name="Group 21350"><g data-name="Group 21349"><path d="M5113.1 2241.5h.2c.8 0 4.1 0 4.2-.5.2-.4 0-1.6-.5-1.6l-4.2.3s-.6 0-.7 1c-.1.7 1 .8 1 .8Z" fill="#eacdcd" data-name="Path 28571"/></g></g></g><g data-name="Group 21355"><g data-name="Group 21354"><g data-name="Group 21353"><g data-name="Group 21352"><path d="M5118.5 2245.2a6.6 6.6 0 0 1-1.6.2 6.2 6.2 0 0 1-1.6 0 6.6 6.6 0 0 1 1.6-.2 6.2 6.2 0 0 1 1.6 0Z" fill="#eacdcd" data-name="Path 28572"/></g></g></g></g><g data-name="Group 21359"><g data-name="Group 21358"><g data-name="Group 21357"><g data-name="Group 21356"><path d="M5118.5 2243.3a25.7 25.7 0 0 1-4.7.2 25.7 25.7 0 0 1 4.7-.2Z" fill="#eacdcd" data-name="Path 28573"/></g></g></g></g><g data-name="Group 21363" opacity=".8"><g data-name="Group 21362"><g data-name="Group 21361"><g data-name="Group 21360"><path d="M5118.2 2241.3a25.6 25.6 0 0 1-4.6.2 25.7 25.7 0 0 1 4.6-.2Z" fill="#eacdcd" data-name="Path 28574"/></g></g></g></g></g></g><g data-name="Group 21367"><g data-name="Group 21366"><path d="M5123.6 2239.9a34.8 34.8 0 0 0-5.7-1.6c-.6 0-2 1-2 1Z" fill="#eacdcd" data-name="Path 28575"/></g></g></g></g></g></g></g><path d="M5149 2199.2a9.2 9.2 0 0 1 7.1 8.3 92.3 92.3 0 0 1 0 16.8c-.4 3.5-2.2 13-3.4 15.7-3.3 7-26.2 7.3-26.2 7.3l-3.1-7.9 18.3-7 2.1-13Z" fill="#da3c4a" data-name="Path 28576"/><path d="m5120.9 2197.6-3.2 1.2a96 96 0 0 0-13.5 18.3l-.4 1.3a12.8 12.8 0 0 0 .3 9 7.5 7.5 0 0 0 5.6 4.9c7 1.3 9.1-4.3 9.1-4.3l5.9-14.4 2-10.7Z" fill="#da3c4a" data-name="Path 28577"/><g data-name="Group 21374"><path d="M5104.6 2220.2a3.9 3.9 0 0 1 .3-.8 10.6 10.6 0 0 1 1-1.8 14 14 0 0 1 1.5-1.6 4.4 4.4 0 0 1 .6-.6 6 6 0 0 1-.6.7 20 20 0 0 0-1.3 1.6 13.7 13.7 0 0 0-1.1 1.8 7.4 7.4 0 0 1-.4.7Z" fill="#d82b1b" data-name="Path 28579"/></g><g data-name="Group 21375"><path d="M5148.3 2243.6a.7.7 0 0 1-.1 0l-.3.3a7.5 7.5 0 0 1-1 .6 20.2 20.2 0 0 1-4.5 1.4 86.1 86.1 0 0 1-15.9 1.4l-2-5.1-1.2-2.8 9.2-3.6 7.4-2.8a7.2 7.2 0 0 1 1.5-.3 3.6 3.6 0 0 1 1.4.1 4.4 4.4 0 0 1 2 1.3 11.4 11.4 0 0 1 .8 1.1l.2.3v.1l-.2-.4a12.8 12.8 0 0 0-1-1 4.4 4.4 0 0 0-1.8-1.3 4.9 4.9 0 0 0-3 .2l-7.3 2.8-9 3.6v-.1l1 2.7 2.1 5.1a88.4 88.4 0 0 0 15.8-1.4 20.8 20.8 0 0 0 4.4-1.3 8 8 0 0 0 1.1-.6l.3-.2Z" fill="#d82b1b" data-name="Path 28580"/></g><g data-name="Group 21377"><path d="M5131.7 2227a1.2 1.2 0 0 1-.2-.3 9 9 0 0 1-.4-.7 12.8 12.8 0 0 1-2-5.2 9 9 0 0 1 0-.8 1.2 1.2 0 0 1 0-.3l.2 1a14.8 14.8 0 0 0 1.8 5.2l.6 1Z" fill="#d82b1b" data-name="Path 28582"/></g></g><g data-name="Group 21379"><path d="M5123.6 2217.2a.8.8 0 0 1 0 .2 1.4 1.4 0 0 1-.5.3 3.2 3.2 0 0 1-1.9.3 2.4 2.4 0 0 1-.6-.2 1.2 1.2 0 0 1-.5-.5 3.2 3.2 0 0 1-.4-1.5 10 10 0 0 0 0-1.7 2 2 0 0 0-.4-.8 1.6 1.6 0 0 0-.8-.5 3.3 3.3 0 0 0-1.7 0l-1.7.4a3.1 3.1 0 0 1-1.5 0 2 2 0 0 1-1-.8 2.8 2.8 0 0 1-.5-1 4.1 4.1 0 0 1 0-.9 4.3 4.3 0 0 1 0-.5.8.8 0 0 1 0-.2v.7a4.4 4.4 0 0 0 0 .8 2.8 2.8 0 0 0 .5 1 1.9 1.9 0 0 0 1 .8 3 3 0 0 0 1.5 0l1.7-.5a3.4 3.4 0 0 1 1.8 0 1.7 1.7 0 0 1 .8.6 2 2 0 0 1 .3.9 9.9 9.9 0 0 1 .2 1.7 3.1 3.1 0 0 0 .3 1.4 1.1 1.1 0 0 0 .4.5 2.3 2.3 0 0 0 .6.2 3.2 3.2 0 0 0 2-.3 1.7 1.7 0 0 0 .4-.4Z" fill="#fff" data-name="Path 28583"/></g><g data-name="Group 21380"><path d="M5110.4 2232.7a.6.6 0 0 1-.2 0 1.3 1.3 0 0 1-.4-.2 2.2 2.2 0 0 1-.8-1.4 10.7 10.7 0 0 1 0-2.4 3 3 0 0 0-.3-1.3 3.4 3.4 0 0 0-1-1.2 15 15 0 0 1-2.1-1.8 4.6 4.6 0 0 1-1-2.2 4.5 4.5 0 0 1 0-1.6 3.2 3.2 0 0 1 .2-.5.6.6 0 0 1 0-.1v.6a4.7 4.7 0 0 0 0 1.5 4.6 4.6 0 0 0 .9 2.2 15.8 15.8 0 0 0 2.2 1.8 3.5 3.5 0 0 1 1 1.2 3.1 3.1 0 0 1 .2 1.4 11.3 11.3 0 0 0 0 2.4 2.2 2.2 0 0 0 .8 1.3 1.9 1.9 0 0 0 .5.3Z" fill="#fff" data-name="Path 28584"/></g><g data-name="Group 21381"><path d="M5143.6 2211.6a1 1 0 0 1-.2.2 1.4 1.4 0 0 1-.1.1 2.2 2.2 0 0 1-.3.3 3.5 3.5 0 0 1-2 .7 3.4 3.4 0 0 1-1.5-.3 2.5 2.5 0 0 1-.3-.2 2.7 2.7 0 0 1-.4-.2 4.7 4.7 0 0 1-.6-.6 7.9 7.9 0 0 0-1.3-1.4 2.4 2.4 0 0 0-1.9-.3 6 6 0 0 0-1.8.7 12.7 12.7 0 0 1-1.7.9 4.8 4.8 0 0 1-3.2 0 4.8 4.8 0 0 1-1.8-1 3.8 3.8 0 0 1-.4-.5 1 1 0 0 1-.1-.2l.5.6a5 5 0 0 0 1.9 1 4.7 4.7 0 0 0 3 0 13 13 0 0 0 1.7-.9 6.2 6.2 0 0 1 1.9-.7 3 3 0 0 1 1 0 2.3 2.3 0 0 1 1 .3 7.9 7.9 0 0 1 1.3 1.4 3.5 3.5 0 0 0 1.3 1 3.4 3.4 0 0 0 1.4.3 3.5 3.5 0 0 0 2-.7 6 6 0 0 0 .6-.5Z" fill="#fff" data-name="Path 28585"/></g><g data-name="Group 21382"><path d="M5140.6 2231.5a2.2 2.2 0 0 0-.8-.5 4 4 0 0 0-2.5.1l-1.7.6a4.3 4.3 0 0 1-2 .3 2.5 2.5 0 0 1-1.1-.4 6.4 6.4 0 0 1-1-.8 8 8 0 0 0-.8-.8 2.4 2.4 0 0 0-1-.4 2.9 2.9 0 0 0-1.3 0 8 8 0 0 0-1.1.5 12.3 12.3 0 0 1-2.1.9 6.5 6.5 0 0 1-3.9-.3 6.3 6.3 0 0 1-2.2-1.4l-.2-.3-.2-.3a1.5 1.5 0 0 1-.2-.2 1.5 1.5 0 0 1 .2.2l.2.3.3.2a6.5 6.5 0 0 0 6 1.6 12.4 12.4 0 0 0 2-.8 8 8 0 0 1 1.2-.5 3 3 0 0 1 1.2 0 2.5 2.5 0 0 1 1.2.4 8.1 8.1 0 0 1 1 .8 3.5 3.5 0 0 0 1.8 1.2 4.2 4.2 0 0 0 2-.3l1.7-.6a4 4 0 0 1 2.5 0 2 2 0 0 1 .6.3 1.5 1.5 0 0 1 .2.2Z" fill="#fff" data-name="Path 28586"/></g><g data-name="Group 21383"><path d="M5134 2247a.4.4 0 0 1-.2 0 1 1 0 0 1-.3-.1 1.5 1.5 0 0 1-.6-1.3 4.7 4.7 0 0 1 .7-2 4 4 0 0 0 .3-1 1.6 1.6 0 0 0-.2-1.2 2.8 2.8 0 0 0-1-.8 10.8 10.8 0 0 0-1-.5 3.4 3.4 0 0 1-1.7-1.2 1.6 1.6 0 0 1-.2-1.4 1 1 0 0 1 .2-.3v-.1a1.5 1.5 0 0 0-.1.4 1.6 1.6 0 0 0 .2 1.3 3.4 3.4 0 0 0 1.6 1.1 10.4 10.4 0 0 1 1.1.5 3 3 0 0 1 1 1 1.8 1.8 0 0 1 .3 1.2 4 4 0 0 1-.4 1.1 4.7 4.7 0 0 0-.7 2 1.5 1.5 0 0 0 .5 1.1 1.3 1.3 0 0 0 .4.2Z" fill="#fff" data-name="Path 28587"/></g><g data-name="Group 21384"><path d="M5154.5 2231.8a4.2 4.2 0 0 0-.3-.5 2.5 2.5 0 0 0-1.5-.7 2.3 2.3 0 0 0-1.1.2 9 9 0 0 0-1.2.5 3.7 3.7 0 0 1-1.4.5 2.9 2.9 0 0 1-1.5-.3 11.6 11.6 0 0 1-2.4-2 4 4 0 0 0-2.1-1 2.2 2.2 0 0 0-1.6.3 2.3 2.3 0 0 0-.4.4.6.6 0 0 1 0-.1 1.5 1.5 0 0 1 .4-.3 2.2 2.2 0 0 1 1.6-.5 2.9 2.9 0 0 1 1 .4 5.8 5.8 0 0 1 1.2.8 12 12 0 0 0 2.3 1.9 2.7 2.7 0 0 0 1.5.3 3.6 3.6 0 0 0 1.3-.5 8.8 8.8 0 0 1 1.2-.6 2.4 2.4 0 0 1 1.2 0 2.5 2.5 0 0 1 1.5.7 1.6 1.6 0 0 1 .3.5Z" fill="#fff" data-name="Path 28588"/></g><g data-name="Group 21385"><path d="M5156.6 2212.2a1.6 1.6 0 0 0-.6.1 2.3 2.3 0 0 0-.5.5l-.7.6a2.3 2.3 0 0 1-1 .6 2.4 2.4 0 0 1-1.3 0l-1.4-.6a2.7 2.7 0 0 0-1.5-.1 3.7 3.7 0 0 0-1.3.6 10.5 10.5 0 0 0-1.1 1 6.5 6.5 0 0 1-2 1.5 2.6 2.6 0 0 1-1.6.1 1.7 1.7 0 0 1-.5-.1.6.6 0 0 1 0-.1 2.8 2.8 0 0 0 .5.2 2.6 2.6 0 0 0 1.6-.2 6.6 6.6 0 0 0 1.9-1.5 10.3 10.3 0 0 1 1-1 3.8 3.8 0 0 1 1.5-.7 2.9 2.9 0 0 1 1.6.2l1.3.5a2.3 2.3 0 0 0 1.3 0 2.2 2.2 0 0 0 1-.5 5.2 5.2 0 0 1 1.2-1 1.2 1.2 0 0 1 .4-.1.6.6 0 0 1 .2 0Z" fill="#fff" data-name="Path 28589"/></g><g data-name="Group 21386"><path d="m5148.3 2201.8-.2-.3a2 2 0 0 0-1-.6 3.7 3.7 0 0 0-1.6-.2 15.3 15.3 0 0 1-2 .2 3.1 3.1 0 0 1-2-.7 3 3 0 0 1-1-2.6 2.2 2.2 0 0 1 0-.3v.3a3.1 3.1 0 0 0 .2 1.1 3 3 0 0 0 .9 1.4 3 3 0 0 0 1.8.7 16.9 16.9 0 0 0 2-.2 3.7 3.7 0 0 1 1.8.2 2 2 0 0 1 1 .7 1.2 1.2 0 0 1 0 .2l.1.1Z" fill="#fff" data-name="Path 28590"/></g><g data-name="Group 21387"><path d="M5108.9 2214.3s-.2 0-.4-.3a3 3 0 0 1-.7-2 1 1 0 0 1 0-.5 4 4 0 0 0 1 2.8Z" fill="#fff" data-name="Path 28591"/></g><g data-name="Group 21388"><path d="m5115.4 2204.3-.7-.7-.9-.6a2.2 2.2 0 0 1 1.6 1.3Z" fill="#fff" data-name="Path 28592"/></g></g><path d="M5129 2195.4c0-1.8 2-3.6 1.9-5.4-.1-1.8-1.1-3.5-1.5-5.3-.8-4.4 2.7-8.9 1.6-13.2l-5.8.3-4.4 28.4 11.6.7c-1-1.8-3.3-3.5-3.3-5.5Z" fill="#263238" data-name="Path 28593"/><g data-name="Group 21420"><path d="M5143.2 2215.2Z" fill="#263238" data-name="Path 28624"/></g><g data-name="Group 21421"><path d="m5150.7 2200-1.3.9a10.2 10.2 0 0 0-1.4 1 12 12 0 0 0-1.3 1.7 12 12 0 0 0-1.7 3.5l-.3 1.5a2.4 2.4 0 0 1 0-.4 4.4 4.4 0 0 1 0-.5l.2-.7a11.2 11.2 0 0 1 1.6-3.5 11.5 11.5 0 0 1 1.4-1.6 9.5 9.5 0 0 1 1.4-1.1 5.5 5.5 0 0 1 .6-.4 3.7 3.7 0 0 1 .4-.2 2.4 2.4 0 0 1 .4-.2Z" fill="#263238" data-name="Path 28625"/></g></g></g><g data-name="Group 21423"><path d="M5060.3 2247.4Z" fill="#263238" data-name="Path 28626"/></g></g><rect fill="#da3c4a" width="167.2" height="1.6" data-name="Rectangle 13302" rx=".8" transform="translate(5051 2246.5)"/><path d="M1976.9 2463.8c-3.6 1.8-25 2.6-40.3 3s-29 2.5-28.6 22 19.8 22.3 35.5 22 30.5-.6 34.7-3.3c.6-9.2 2.3-45.5-1.3-43.7Z" fill="url(#a)" data-name="Path 28696" transform="translate(3242 -263.4)"/><g filter="url(#b)" transform="translate(5020.8 2089.5)"><path d="m180.4 149-4.4-7.4-4.5 7.3h-7.2l8-11.6-8.2-12.5h7.5l4.5 7.3 4.7-7.3h7l-8 11.5 8.3 12.6Zm-25.7 0v-6h-13.3v-5l13.3-18h6.7v17.8h2.7v5.4h-2.8v5.8Zm-6.4-11.3h6.4V129Z" fill="#fff" data-name="Union 90"/></g></g></svg>