<svg xmlns="http://www.w3.org/2000/svg" xmlns:xlink="http://www.w3.org/1999/xlink" width="231.944" height="170.103" viewBox="0 0 231.944 170.103">
  <defs>
    <clipPath id="clip-path">
      <rect id="Rectangle_24789" data-name="Rectangle 24789" width="119.964" height="119.964" fill="#ef7f8e"/>
    </clipPath>
    <clipPath id="clip-path-2">
      <rect id="Rectangle_24809" data-name="Rectangle 24809" width="10.973" height="6.333" fill="none"/>
    </clipPath>
  </defs>
  <g id="Group_221246" data-name="Group 221246" transform="translate(-155.999 -658)">
    <g id="Group_221165" data-name="Group 221165" transform="translate(-0.35 -24.006)">
      <path id="Path_20101" data-name="Path 20101" d="M344.3,1227.147c-20.925,4.595-42.314.287-63.275-1.8-13.8-1.373-27.1.494-40.939,1.51-35.165,2.581-74.179-1.96-85.428-34.457-9.369-27.081,5.779-67.266,38.433-83.167,11.294-5.5,22.792-6.587,34.011-5.457,6.737.679,14.245,3.263,21.505.539,7.655-2.868,13.319-10.841,18.493-16.581,7.7-8.549,15.834-17.508,26.165-23.284,23.7-13.255,37.788-.331,44.906,20.911,3.461,10.325,5.3,21.092,8.087,31.6,3.95,14.9,12.53,25.718,22.189,37.708,8.6,10.677,16.648,23.167,15.261,36.712-1.572,15.375-15.425,27.983-30.866,33.359a74.473,74.473,0,0,1-8.54,2.406" transform="translate(4.426 -377.079)" fill="#f7f7f7"/>
    </g>
    <g id="Group_221167" data-name="Group 221167" transform="translate(219.076 675.206)">
      <g id="Group_221166" data-name="Group 221166" transform="translate(-0.528 0.471)" clip-path="url(#clip-path)">
        <path id="Path_125143" data-name="Path 125143" d="M60.026,120.054a60.027,60.027,0,1,1,60.026-60.026,60.094,60.094,0,0,1-60.026,60.026M63.605,83.9a.865.865,0,0,0-.867.867v28.57a.866.866,0,0,0,.867.867.855.855,0,0,0,.192-.021c9.131-2.077,17.508-11.848,22.41-26.139a.871.871,0,0,0-.057-.692.862.862,0,0,0-.547-.428,101.265,101.265,0,0,0-21.971-3.021h-.027m-7.184,0A101.277,101.277,0,0,0,34.45,86.931a.867.867,0,0,0-.6,1.12c4.9,14.288,13.279,24.059,22.41,26.135a.847.847,0,0,0,.192.021.868.868,0,0,0,.867-.867V84.773a.867.867,0,0,0-.867-.867h-.027M27.693,89.04a.889.889,0,0,0-.295.051,58.145,58.145,0,0,0-9.316,4.273.867.867,0,0,0-.236,1.3A55.176,55.176,0,0,0,37.37,109.688a.866.866,0,0,0,1.032-1.334,59.449,59.449,0,0,1-9.887-18.723.862.862,0,0,0-.822-.591m64.668-.008a.865.865,0,0,0-.823.591,59.443,59.443,0,0,1-9.89,18.731.867.867,0,0,0,1.034,1.334A55.182,55.182,0,0,0,102.2,94.666a.867.867,0,0,0-.236-1.3,58.018,58.018,0,0,0-9.311-4.282.9.9,0,0,0-.295-.051m4.543-26.294a.865.865,0,0,0-.866.838,96.2,96.2,0,0,1-2.557,19.258.867.867,0,0,0,.554,1.02A63.6,63.6,0,0,1,105.27,89.02a.867.867,0,0,0,1.179-.288,54.535,54.535,0,0,0,8.045-25.07.867.867,0,0,0-.864-.924Zm-90.484,0a.867.867,0,0,0-.864.924A54.534,54.534,0,0,0,13.6,88.728a.867.867,0,0,0,1.179.288,63.789,63.789,0,0,1,11.237-5.161.87.87,0,0,0,.554-1.02,96.023,96.023,0,0,1-2.557-19.259.867.867,0,0,0-.866-.838Zm23.893,0a.868.868,0,0,0-.866.9,89.1,89.1,0,0,0,2.386,17.488.856.856,0,0,0,.4.539.867.867,0,0,0,.446.124.879.879,0,0,0,.219-.028,106.435,106.435,0,0,1,23.578-3.28.867.867,0,0,0,.84-.866V63.605a.867.867,0,0,0-.867-.867Zm33.291,0a.866.866,0,0,0-.867.867v14.01a.866.866,0,0,0,.84.866,106.527,106.527,0,0,1,23.58,3.276.865.865,0,0,0,1.06-.635A89.014,89.014,0,0,0,90.6,63.639a.868.868,0,0,0-.866-.9Zm42.106-31.825a.858.858,0,0,0-.442.121A63.71,63.71,0,0,1,94.036,36.2a.866.866,0,0,0-.554,1.02,96.177,96.177,0,0,1,2.557,19.256.865.865,0,0,0,.866.838H113.63a.867.867,0,0,0,.864-.924,54.525,54.525,0,0,0-8.045-25.068.866.866,0,0,0-.738-.41M87.377,38.269a.871.871,0,0,0-.219.028,106.4,106.4,0,0,1-23.58,3.276.867.867,0,0,0-.84.866v14.01a.866.866,0,0,0,.867.867H89.737a.868.868,0,0,0,.866-.9,89.028,89.028,0,0,0-2.384-17.484.868.868,0,0,0-.842-.663m-54.7,0a.866.866,0,0,0-.446.123.855.855,0,0,0-.4.54,89.083,89.083,0,0,0-2.386,17.486.868.868,0,0,0,.866.9H56.447a.867.867,0,0,0,.867-.867V42.439a.868.868,0,0,0-.84-.866A106.435,106.435,0,0,1,32.9,38.294a.878.878,0,0,0-.219-.028m-18.339-7.35a.864.864,0,0,0-.738.41A54.534,54.534,0,0,0,5.557,56.391a.867.867,0,0,0,.864.924H23.147a.867.867,0,0,0,.866-.838A96.01,96.01,0,0,1,26.57,37.22a.869.869,0,0,0-.554-1.02A63.573,63.573,0,0,1,14.78,31.038a.858.858,0,0,0-.442-.121M63.605,5.845a.866.866,0,0,0-.867.867v28.57a.865.865,0,0,0,.867.867h.027A101.093,101.093,0,0,0,85.6,33.127a.867.867,0,0,0,.6-1.12C81.308,17.716,72.929,7.945,63.8,5.868a.859.859,0,0,0-.192-.023m-7.158,0a.849.849,0,0,0-.192.023C47.125,7.943,38.748,17.714,33.846,32a.868.868,0,0,0,.6,1.122,101.276,101.276,0,0,0,21.971,3.025h.027a.867.867,0,0,0,.867-.867V6.712a.868.868,0,0,0-.867-.867m25.874,4.442a.867.867,0,0,0-.672,1.414,59.429,59.429,0,0,1,9.89,18.731.867.867,0,0,0,1.118.539,57.85,57.85,0,0,0,9.312-4.282.868.868,0,0,0,.235-1.3A55.136,55.136,0,0,0,82.683,10.366a.862.862,0,0,0-.361-.079m-44.592,0a.86.86,0,0,0-.36.079A55.191,55.191,0,0,0,17.847,25.39a.867.867,0,0,0,.236,1.3A58.045,58.045,0,0,0,27.4,30.963a.858.858,0,0,0,.295.052.867.867,0,0,0,.822-.592A59.442,59.442,0,0,1,38.4,11.7a.867.867,0,0,0-.672-1.414" transform="translate(0.538 -0.627)" fill="#ef7f8e"/>
      </g>
    </g>
    <rect id="Rectangle_499" data-name="Rectangle 499" width="188.225" height="1.567" rx="0.783" transform="translate(178.855 820.894)" fill="#da3c4a"/>
    <g id="Group_221235" data-name="Group 221235" transform="translate(-32.922 -341.84)">
      <path id="Path_125298" data-name="Path 125298" d="M87.561,33.926a17.6,17.6,0,0,0-1.077-1.516,32.09,32.09,0,0,0-5.155-5.225,3.926,3.926,0,0,0-1.421-.827c-1.225-.317-1.424.785-2.376,1.166a9.454,9.454,0,0,1-3.059.362c-1.34.071-2.66.067-4,.246-3.18.426-7.132,1.049-8.753,4.17-1.01,1.943-.859,4.07-1.352,6.117-.618,2.572-1.32,5.122-1.938,7.694-.742,3.087-1.427,6.189-1.994,9.315-.559,3.084-1.272,6.184-.773,9.312a3.937,3.937,0,0,0,.257.989,3.75,3.75,0,0,0,1.933,1.683,8.652,8.652,0,0,0,5.451.786c2.9-.623,4.111-2.863,5.022-5.437q.678-1.912,1.254-3.855a10.1,10.1,0,0,0,.078,2.641c.026.922-.01,1.872.081,2.788a4.01,4.01,0,0,0,2.022,3.384,6.565,6.565,0,0,0,3.2.468,10.44,10.44,0,0,0,2.634-.423c3.067-.978,5.172-4.429,6.441-7.205a54.494,54.494,0,0,0,3.631-9.368,51.618,51.618,0,0,0,1.141-6.339c.388-3.4.739-7.02-.784-10.083-.144-.289-.3-.568-.471-.841" transform="translate(225.904 1088.548)" fill="#395795"/>
      <path id="Path_125299" data-name="Path 125299" d="M60.869,37.333a14.82,14.82,0,0,0,5.509,2.526,13.728,13.728,0,0,0,1.524.3,9.281,9.281,0,0,0,2.006.03,12.9,12.9,0,0,0,3.949-1.054,18.146,18.146,0,0,0,6.069-4.276,14.985,14.985,0,0,0,3.087-5.013A32.188,32.188,0,0,0,80.1,27.184a3.926,3.926,0,0,0-1.421-.827c-1.225-.317-1.424.785-2.374,1.166a9.458,9.458,0,0,1-3.06.362c-1.34.071-2.66.067-4,.246-3.18.426-7.132,1.049-8.753,4.17a10.843,10.843,0,0,0-.969,3.76,9,9,0,0,0,1.345,1.272" transform="translate(227.137 1088.548)" fill="#231c20"/>
      <path id="Path_125300" data-name="Path 125300" d="M77.446,33.44l.705-2.288.018.007a3.3,3.3,0,0,0,.743-1.845c-.016-.35-.35-.686-.644-.982l-.116-.119A17.512,17.512,0,0,0,76.8,26.961a.553.553,0,0,0-.744.013,2.349,2.349,0,0,0-.511.6c-.165.246-.323.5-.471.752l-.564-.332c.155-.264.321-.529.492-.784a2.878,2.878,0,0,1,.666-.761,1.2,1.2,0,0,1,1.549.009,18.368,18.368,0,0,1,1.408,1.3c.035.038.073.076.111.114a2.275,2.275,0,0,1,.833,1.416,3.949,3.949,0,0,1-.862,2.25Z" transform="translate(231.721 1088.508)" fill="#395795"/>
      <path id="Path_125301" data-name="Path 125301" d="M76.241,35.425c-1.3-1.4-2.54-2.871-3.7-4.382l.865-.663c1.141,1.484,2.365,2.932,3.637,4.3Z" transform="translate(231.119 1089.796)" fill="#395795"/>
      <path id="Path_125302" data-name="Path 125302" d="M70.465,38.537a16.531,16.531,0,0,1-1.953-3.868l1.029-.359a15.361,15.361,0,0,0,1.823,3.612Z" transform="translate(229.887 1090.999)" fill="#395795"/>
      <path id="Path_125303" data-name="Path 125303" d="M81.909,28.854a11.5,11.5,0,0,1-1.442-6.343,25.55,25.55,0,0,0-.127-5.134,8.547,8.547,0,0,0-1.115-3.61c-1.258-1.942-3.437-2.637-5.5-3.312-2.512-.821-4.856-1.9-7.567-1.83a23.916,23.916,0,0,0-3.235.488c-1.606.261-3.256.278-4.83.695a18.05,18.05,0,0,0-6.46,3.761,9.933,9.933,0,0,0-2.518,2.624,3.369,3.369,0,0,0,.144,3.78,12.619,12.619,0,0,0,1.331,1.559,8.773,8.773,0,0,1,1.157,1.831q1.538,2.705,3.077,5.412c.671,1.181,1.485,2.21,2.125,3.4.726,1.35,1.409,2.724,2.074,4.106.976,2.024,1.909,4.068,2.888,6.091s2.539,4.872,5.052,5.035a8.032,8.032,0,0,0,2.764-.426A24.651,24.651,0,0,0,78,42.822a17.163,17.163,0,0,0,5.713-7.595c.6-1.562-.063-2.912-.788-4.34-.336-.66-.684-1.34-1.017-2.033" transform="translate(223.793 1083.138)" fill="#395795"/>
      <path id="Path_125304" data-name="Path 125304" d="M81.471,37.224c-.035-.086-.2-.085-.268-.077a24.3,24.3,0,0,0-7.946,2.248q-1.05.5-2.048,1.108c-.076.046-.078.112,0,.157a.354.354,0,0,0,.308,0,23.722,23.722,0,0,1,7.549-2.953c.744-.152,1.5-.266,2.252-.345.065-.007.188-.051.153-.137" transform="translate(230.695 1091.866)" fill="#231c20"/>
      <path id="Path_125305" data-name="Path 125305" d="M78,40.057a35.01,35.01,0,0,0-5.624.137c-.064.007-.187.051-.152.137s.2.085.268.077A34.318,34.318,0,0,1,78,40.279c.064,0,.218-.022.218-.111s-.157-.107-.218-.111" transform="translate(231.021 1092.741)" fill="#231c20"/>
      <path id="Path_125306" data-name="Path 125306" d="M60.111,21.807a18.081,18.081,0,0,1-1.819-1.759,2.228,2.228,0,0,1-.658-.981c-.067-.393.148-.774.076-1.17-.01-.059-.059-.081-.111-.1l-1.877-.637-.926-.315a1.318,1.318,0,0,1-.332-.137.391.391,0,0,1-.151-.349c0-.312.047-.631.074-.942q.043-.5.093-1,.094-.972.206-1.942.127-1.111.276-2.216c.02-.149-.43-.166-.452,0q-.274,2.047-.477,4.1-.047.5-.093,1c-.03.329-.081.666-.08,1a.6.6,0,0,0,.406.575c.285.124.589.208.883.308l2.117.72c.042.379-.153.748-.08,1.127a2.261,2.261,0,0,0,.646,1,18.287,18.287,0,0,0,1.887,1.836.351.351,0,0,0,.31.042c.065-.021.162-.09.081-.158" transform="translate(225.402 1083.603)" fill="#231c20"/>
      <path id="Path_125307" data-name="Path 125307" d="M59.671,21.186a.54.54,0,0,0-.566-.3.437.437,0,0,0-.285.127.478.478,0,0,0-.108.232.994.994,0,0,0,.005.383.741.741,0,0,0,.016.119.766.766,0,0,0,.215.4.6.6,0,0,0,.616.145.274.274,0,0,0,.172-.226,1.8,1.8,0,0,0,.027-.3,1.436,1.436,0,0,0-.094-.58" transform="translate(226.883 1086.891)" fill="#231c20"/>
      <path id="Path_125308" data-name="Path 125308" d="M60.653,26.753a.541.541,0,0,0-.58-.266.435.435,0,0,0-.278.141.481.481,0,0,0-.1.238.944.944,0,0,0,.025.381.731.731,0,0,0,.021.119.761.761,0,0,0,.236.387.6.6,0,0,0,.623.114.269.269,0,0,0,.161-.234,1.825,1.825,0,0,0,.012-.3,1.447,1.447,0,0,0-.124-.575" transform="translate(227.188 1088.603)" fill="#231c20"/>
      <path id="Path_125309" data-name="Path 125309" d="M62.955,31.177a.544.544,0,0,0-.637-.05.441.441,0,0,0-.21.23.461.461,0,0,0-.008.256.951.951,0,0,0,.155.349.755.755,0,0,0,.061.1.775.775,0,0,0,.355.281.6.6,0,0,0,.624-.11.272.272,0,0,0,.069-.276,1.867,1.867,0,0,0-.1-.289,1.434,1.434,0,0,0-.315-.5" transform="translate(227.92 1090.001)" fill="#231c20"/>
      <path id="Path_125310" data-name="Path 125310" d="M66.726,15.979c-.016-.2-.033-.4-.052-.607q-.055-.607-.123-1.212-.133-1.183-.317-2.36-.21-1.342-.485-2.671c-.034-.165-.481-.141-.452,0q.476,2.306.757,4.646c.094.785.184,1.574.232,2.363a.589.589,0,0,1-.111.447,2.128,2.128,0,0,1-.384.325,3.137,3.137,0,0,1-.892.445c-.661.208-1.416.165-1.968.637-.043.038-.034.078,0,.116a3.114,3.114,0,0,1,.453.687,46.908,46.908,0,0,0-4.429,3.363c-.078.068.016.136.081.158a.351.351,0,0,0,.31-.042,46.548,46.548,0,0,1,4.478-3.4.071.071,0,0,0,.022-.089,3.259,3.259,0,0,0-.468-.725,5.2,5.2,0,0,1,1.725-.5,3.728,3.728,0,0,0,.925-.431c.249-.162.6-.377.686-.68a1.322,1.322,0,0,0,.01-.47" transform="translate(226.953 1083.258)" fill="#231c20"/>
      <path id="Path_125311" data-name="Path 125311" d="M64.644,11.646a9.145,9.145,0,0,1-1.656,5.617c-.046.065-.091.129-.14.192-.32.432-.665.846-.983,1.279a26.684,26.684,0,0,0-2.027,3.421,9.172,9.172,0,0,1-1.4-2.606q-.286-.684-.592-1.358-.284-.623-.582-1.239a19.764,19.764,0,0,0-1.208-2.105,2.41,2.41,0,0,1-.3-.61,1.725,1.725,0,0,1,.14-1.224,5.448,5.448,0,0,1,1.852-2.245,9.553,9.553,0,0,1,2.637-1.29,9.844,9.844,0,0,1,2.557-.525c.417-.024.724-.08,1.017.243a2.46,2.46,0,0,1,.517.96,5.446,5.446,0,0,1,.171,1.491" transform="translate(225.965 1083.233)" fill="#eacdcd"/>
      <path id="Path_125312" data-name="Path 125312" d="M62.345,15.458c-.32.431-.665.846-.983,1.279a26.684,26.684,0,0,0-2.027,3.421,9.205,9.205,0,0,1-1.4-2.606c-.191-.456-.387-.908-.592-1.358.366.031.733.044,1.1.04a10.292,10.292,0,0,0,3.908-.776" transform="translate(226.469 1085.23)" fill="#fff"/>
      <path id="Path_125313" data-name="Path 125313" d="M56.2,14.365a3.261,3.261,0,0,0,1.053,2.194c1.386,1.187,2.976.518,4.124-.571a7.792,7.792,0,0,0,2.064-4.678,2.31,2.31,0,0,0-.017-.788.97.97,0,0,0-.445-.635c-.82-.455-2.368.729-3.048,1.128a24.791,24.791,0,0,0-3.031,2.1,2.106,2.106,0,0,0-.525.546,1.388,1.388,0,0,0-.174.705" transform="translate(226.119 1083.494)" fill="#ddbcbc"/>
      <path id="Path_125314" data-name="Path 125314" d="M53.07,10.316A39.665,39.665,0,0,0,55,14.974a14.177,14.177,0,0,0,2.442,3.148c2.176,2.079,4.847.287,6.4-1.625a6.292,6.292,0,0,0,1.194-4.14c-.024-.477-.1-.951-.1-1.427a23.236,23.236,0,0,1,.263-2.472,7.626,7.626,0,0,0-2.369-5.7,5.514,5.514,0,0,0-1.674-1.225,3.479,3.479,0,0,0-1.781-.1,11.45,11.45,0,0,0-3.917,1.3,8.3,8.3,0,0,0-2.1,1.408,4.079,4.079,0,0,0-.677,1.544c-.072.178-.2.321-.264.5a2.853,2.853,0,0,0-.085.842,8.273,8.273,0,0,0,.751,3.286" transform="translate(224.932 1080.918)" fill="#eacdcd"/>
      <path id="Path_125315" data-name="Path 125315" d="M65.475,3.235a3,3,0,0,1,.991.978,3.82,3.82,0,0,1,.125,2.164,10.312,10.312,0,0,0-.033,1.643,5.556,5.556,0,0,1,.04,1.434,5.907,5.907,0,0,1-.266,1.054,1.012,1.012,0,0,1-.285.439c-.743.6-1.421-1.156-1.575-1.625-.195-.6-.507-1.267-1.118-1.418a2.793,2.793,0,0,0-1.047.063A3.406,3.406,0,0,1,60.463,7.7c-.607-.273-1.2-.739-1.86-.627a4.7,4.7,0,0,0-1.057.478,2.227,2.227,0,0,1-1.983-.1c-.329-.188-.6-.46-.934-.649a1.058,1.058,0,0,0-1.373.114c-.337.321-.278.9-.3,1.3a11.637,11.637,0,0,1-.072,1.719A1.528,1.528,0,0,1,51.852,8.81a3.859,3.859,0,0,1,0-1.595,6.71,6.71,0,0,0,.14-1.6,10.266,10.266,0,0,1-.18-1.43,2.366,2.366,0,0,1,.666-1.439,4.53,4.53,0,0,1,1.448-1.033A18.125,18.125,0,0,0,55.631,1.1a8.458,8.458,0,0,1,1.784-1A3.847,3.847,0,0,1,59.459.2a8.674,8.674,0,0,0,2.009.419,7.572,7.572,0,0,1,1.1.02c1.349.234,1.636,1.69,2.611,2.385.1.069.2.137.294.206" transform="translate(224.762 1080.499)" fill="#231c20"/>
      <path id="Path_125316" data-name="Path 125316" d="M61.667,6.394a1.024,1.024,0,0,1,1.063.239,1.987,1.987,0,0,1,.5,1.128,2.788,2.788,0,0,1-1.344,2.984.843.843,0,0,1-.394.12c-.872-.008-.789-1.872-.824-2.461A2.456,2.456,0,0,1,60.9,7.017a1.4,1.4,0,0,1,.769-.623" transform="translate(227.482 1082.439)" fill="#eacdcd"/>
      <path id="Path_125317" data-name="Path 125317" d="M55.035,7.458a2.455,2.455,0,0,0-.469.052,2.509,2.509,0,0,0-1.032.477c-.131.1-.549.354-.261.453a1.834,1.834,0,0,0,.9-.106,4.792,4.792,0,0,1,1.687.031c.227.034.448.09.49-.155a.54.54,0,0,0-.141-.518A1.622,1.622,0,0,0,55.54,7.5a2.614,2.614,0,0,0-.505-.04" transform="translate(225.193 1082.781)" fill="#231c20"/>
      <path id="Path_125318" data-name="Path 125318" d="M58.963,6.52a3.913,3.913,0,0,1,2.143.163.24.24,0,0,1,.071.042.061.061,0,0,1,.008.076.1.1,0,0,1-.05.026,19.149,19.149,0,0,0-2.728.845c-.251.116-.744.248-.853-.152a.514.514,0,0,1,.239-.495,2.477,2.477,0,0,1,1.17-.505" transform="translate(226.529 1082.475)" fill="#231c20"/>
      <path id="Path_125319" data-name="Path 125319" d="M55.415,9.228c-.091-.231-.249-.5-.532-.495a.366.366,0,0,0-.325.192.41.41,0,0,0-.035.1c-.01.026-.018.052-.026.078a.713.713,0,0,0,.061.517.512.512,0,0,0,.256.33.5.5,0,0,0,.515-.1.548.548,0,0,0,.086-.626" transform="translate(225.59 1083.172)" fill="#231c20"/>
      <path id="Path_125320" data-name="Path 125320" d="M59.672,8.409c-.078-.247-.226-.535-.519-.549a.446.446,0,0,0-.44.3.787.787,0,0,0-.02.293A.815.815,0,0,0,59,9.123a.405.405,0,0,0,.436-.007.565.565,0,0,0,.235-.708" transform="translate(226.881 1082.904)" fill="#231c20"/>
      <path id="Path_125321" data-name="Path 125321" d="M56.431,11.81c0-.119,0-.238,0-.358A10.832,10.832,0,0,0,56.255,8.4c-.031-.112.259-.231.286-.131a9.336,9.336,0,0,1,.191,2.71c0,.231-.008.461-.007.692a.629.629,0,0,0,.051.347.62.62,0,0,0,.23.175,1.4,1.4,0,0,0,1.144.094c.043-.017.148-.054.176.008s-.069.123-.11.138a1.777,1.777,0,0,1-1.229.033.964.964,0,0,1-.5-.317.671.671,0,0,1-.059-.343" transform="translate(226.135 1083.019)" fill="#e06f63"/>
      <path id="Path_125322" data-name="Path 125322" d="M59.374,12.172a4.778,4.778,0,0,0-1.054.146l-1.049.231c-.064.014-.124.076-.068.133a.3.3,0,0,0,.261.035l.973-.214a4.212,4.212,0,0,1,.936-.137c.057,0,.187-.017.191-.1s-.141-.1-.191-.1" transform="translate(226.42 1084.224)" fill="#e06f63"/>
      <path id="Union_327" data-name="Union 327" d="M17651.859,4495.962a3.459,3.459,0,0,1-.979-1.946c-.023-.124.354-.142.381,0a3.393,3.393,0,0,0,.838,1.76,1.952,1.952,0,0,0,1.662.634c.063-.009.2,0,.234.071s-.074.111-.133.12a2.212,2.212,0,0,1-.34.026A2.48,2.48,0,0,1,17651.859,4495.962Zm10.338-.014a1.844,1.844,0,0,0-.492-1.95c-.066-.058.01-.115.066-.133a.3.3,0,0,1,.262.035,1.959,1.959,0,0,1,.531,2.1c-.016.051-.1.076-.176.076C17662.281,4496.073,17662.17,4496.03,17662.2,4495.949Zm-9.34-.753c-.119-.133.248-.19.328-.1a1.527,1.527,0,0,0,1.582.5.316.316,0,0,1,.262.036c.059.062,0,.115-.066.133a2.072,2.072,0,0,1-.6.087A1.979,1.979,0,0,1,17652.857,4495.2Zm-3.791-1.122a1.411,1.411,0,0,1,.355-1.427.289.289,0,0,1,.262-.036c.057.018.129.071.066.133a1.285,1.285,0,0,0-.314,1.281c.021.08-.07.111-.133.12a.406.406,0,0,1-.053,0C17649.18,4494.148,17649.088,4494.132,17649.066,4494.074Zm10.467.014c-.059-.009-.16-.044-.133-.12a1.01,1.01,0,0,0-.551-1.268.071.071,0,0,1,0-.137.322.322,0,0,1,.271,0,1.191,1.191,0,0,1,.6.554,1.165,1.165,0,0,1,.055.9c-.021.055-.115.07-.186.07A.418.418,0,0,1,17659.533,4494.087Zm.828-.847a1.684,1.684,0,0,0-1.484-1.937c-.523-.031-1.047.129-1.568.133a4.542,4.542,0,0,1-1.518-.253c-.057-.022-.127-.071-.066-.133a.282.282,0,0,1,.258-.036,3.935,3.935,0,0,0,1.449.226c.436-.018.859-.128,1.295-.133a2.076,2.076,0,0,1,1.1.271,1.866,1.866,0,0,1,.918,1.862c-.01.068-.1.1-.2.1S17660.354,4493.3,17660.361,4493.241Z" transform="translate(-17371.949 -3409.326)" fill="#e6e6e6" stroke="rgba(0,0,0,0)" stroke-miterlimit="10" stroke-width="1"/>
      <path id="Path_125329" data-name="Path 125329" d="M68.619,41.818q-1.07,4.911-1.892,9.871-.233,1.4-.447,2.814c-.013.088.257.1.273,0q.752-4.97,1.753-9.9.282-1.4.586-2.788c.018-.084-.251-.1-.273,0" transform="translate(229.203 1093.276)" fill="#231c20"/>
      <path id="Path_125330" data-name="Path 125330" d="M52.131,50.756a17.126,17.126,0,0,0-1,2.677,33.778,33.778,0,0,1-1.593,5.416c-.022.05-.047.1-.074.153a.842.842,0,0,1-.336.374.973.973,0,0,1-.478.076c-1.285-.033-2.506-.613-3.79-.673a12.1,12.1,0,0,0-1.475.068c-.619.044-1.242.06-1.864.046a3.708,3.708,0,0,1-1.762-.357,4.856,4.856,0,0,1-1.524-1.853,3.16,3.16,0,0,1-.317-2.63,4.909,4.909,0,0,1,1.441-1.8,7.243,7.243,0,0,1,2.192-1.485,5.134,5.134,0,0,1,2.532-.716h0c.1.013.193.03.3.052.5.119.987.311,1.5.389a3.72,3.72,0,0,0,.626.04,5.833,5.833,0,0,0,1.889-.4c.8-.3,1.566-.691,2.365-.994a2.073,2.073,0,0,1,.921-.182c.981.1.744,1.169.452,1.8" transform="translate(220.477 1095.48)" fill="#eacdcd"/>
      <path id="Path_125331" data-name="Path 125331" d="M45.341,50.275a2.6,2.6,0,0,1-.675,1.194,2.711,2.711,0,0,1-1.749.947c-.893.037-1.328-.509-1.352-1.36-.009-.285.02-.567.034-.85.093-.039.188-.08.283-.115a5.428,5.428,0,0,1,.786-.247c.084-.02.168-.037.253-.051h0c.1.012.193.03.3.052.5.118.987.311,1.5.389a3.72,3.72,0,0,0,.626.04" transform="translate(221.641 1095.738)" fill="#ddbcbc"/>
      <path id="Path_125332" data-name="Path 125332" d="M35.018,49.611a6.473,6.473,0,0,1,1.627-.624c.364-.085.744-.068,1.1-.168a1.816,1.816,0,0,0,.853-.551c.4-.4.755-.842,1.123-1.272.306-.359.7-.874,1.236-.788a1.194,1.194,0,0,1,.443.192c.391.246.717.772,1.181.827a7.1,7.1,0,0,0,1.653-.1,6.254,6.254,0,0,1,1.578-.008c.947.132,1.367,1.038,1.5,1.9A5.991,5.991,0,0,1,45.7,54.049a10.5,10.5,0,0,1-1.357,1.178c-.439.328-.79.537-.878,1.113a4.412,4.412,0,0,1-2.506,3.368,5.938,5.938,0,0,1-3.016.573,4.926,4.926,0,0,1-1.946-.5,6.31,6.31,0,0,1-1.431-1.085,15.516,15.516,0,0,1-1.636-1.839,4.316,4.316,0,0,1-.734-1.285,5.507,5.507,0,0,1,.8-4.377,5.491,5.491,0,0,1,.72-.684,8.52,8.52,0,0,1,1.31-.9" transform="translate(218.725 1094.637)" fill="#eacdcd"/>
      <path id="Path_125333" data-name="Path 125333" d="M33.5,49.788a3.544,3.544,0,0,1,.447.427,5.91,5.91,0,0,0,.959.994,8.9,8.9,0,0,0,2.479.777,3.906,3.906,0,0,1,2.039,1.582c.444.692.726,1.623,1.578,1.9.516.168,1.038.11,1.539.3.516.193,1.079.2,1.6.374a3.041,3.041,0,0,1,1.555,1.3c.622,1,.059,1.6-.765,2.208a14.115,14.115,0,0,1-8.835,2.688,3.66,3.66,0,0,1-1.992-.5,3.291,3.291,0,0,1-.791-.844A11.218,11.218,0,0,1,31.75,56.43a22.508,22.508,0,0,1-.357-4.972c.037-.816.285-2.214,1.42-2a1.622,1.622,0,0,1,.683.329" transform="translate(218.521 1095.628)" fill="#231c20"/>
      <path id="Path_125334" data-name="Path 125334" d="M39.823,52.3h-.044c-1.183-.017-3.176,1.267-2.329,2.636a1.684,1.684,0,0,0,1.442.743c1.1-.01,2.749-1.127,2.592-2.373-.1-.759-1.013-.986-1.661-1" transform="translate(220.318 1096.504)" fill="#eacdcd"/>
      <path id="Path_125335" data-name="Path 125335" d="M132.688,53.4a2.761,2.761,0,0,0,1.074,3.008c3.016,2.309,6.985,1.454,10.395.794a3.2,3.2,0,0,0,2.163-1.081,2.839,2.839,0,0,0,.111-2.381,3.5,3.5,0,0,0-1.762-2.288,16.9,16.9,0,0,0-4.269-.3l-2.53-.125c-1.762-.086-4.185.389-5.1,2.2-.029.057-.055.115-.077.172" transform="translate(249.486 1096.114)" fill="#ffa87d"/>
      <path id="Path_125336" data-name="Path 125336" d="M147.8,45.786a.684.684,0,0,1,.048.059l-2.807,14.672c-.107-.008-.213-.016-.319-.027-.24-.026-.477-.065-.712-.115a5.481,5.481,0,0,1-2.431-1.192.736.736,0,0,1-.311-.505.937.937,0,0,1,.324-.582,3.347,3.347,0,0,0,.849-2.532,3.527,3.527,0,0,0-.692-1.533,2.67,2.67,0,0,1-.4-.622,1.019,1.019,0,0,1,.046-.771,8.877,8.877,0,0,1,1.511-1.8A17.331,17.331,0,0,0,144.4,48.72c.375-.626.712-1.276,1.144-1.86a4.111,4.111,0,0,1,1.284-1.2.785.785,0,0,1,.973.131" transform="translate(252.154 1094.438)" fill="#fff"/>
      <path id="Path_125337" data-name="Path 125337" d="M144.842,47.948c-.171.038-.263.243-.351.381a18.358,18.358,0,0,1-1.664,2.211q-.515.59-1.075,1.13a.277.277,0,0,0-.078.23c.007.05.052.145.112.085a18.968,18.968,0,0,0,1.967-2.211q.439-.582.833-1.2c.052-.081.107-.219.195-.27.1-.061.214.042.286.107.12.11.518.669.713.584.3-.132-.153-.533-.249-.6a2.275,2.275,0,0,1-.253-.21c-.114-.108-.257-.278-.435-.239" transform="translate(252.275 1095.171)" fill="#65bfd7"/>
      <path id="Path_125338" data-name="Path 125338" d="M141.984,49.919a.309.309,0,0,0-.034.132.182.182,0,0,0,.022.111l.454.657c.044.061.108.017.137-.039a.308.308,0,0,0,.034-.131.189.189,0,0,0-.021-.111l-.457-.657c-.043-.063-.107-.017-.136.038" transform="translate(252.361 1095.755)" fill="#231c20"/>
      <path id="Path_125339" data-name="Path 125339" d="M142.443,49.4a.268.268,0,0,0-.012.242,5.167,5.167,0,0,0,.428.592c.018.021.035.039.067.03a.133.133,0,0,0,.069-.069.3.3,0,0,0,.035-.131.188.188,0,0,0-.022-.111,5.167,5.167,0,0,1-.428-.592c-.042-.065-.11-.014-.137.039" transform="translate(252.502 1095.595)" fill="#231c20"/>
      <path id="Path_125340" data-name="Path 125340" d="M142.947,48.748a.133.133,0,0,0-.069.069.3.3,0,0,0-.035.131.186.186,0,0,0,.022.111q.206.243.413.485c.018.022.035.039.067.031a.133.133,0,0,0,.069-.069.29.29,0,0,0,.034-.131.176.176,0,0,0-.021-.111l-.413-.486c-.02-.021-.035-.039-.067-.03" transform="translate(252.635 1095.417)" fill="#231c20"/>
      <path id="Path_125341" data-name="Path 125341" d="M143.3,48.125a.275.275,0,0,0-.013.243,2.737,2.737,0,0,0,.5.611.059.059,0,0,0,.073-.005.2.2,0,0,0,.063-.1.227.227,0,0,0-.024-.223c-.046-.042-.09-.085-.132-.129l-.061-.068-.01-.012-.012-.014-.03-.035a3.031,3.031,0,0,1-.214-.31c-.039-.068-.11-.014-.136.038" transform="translate(252.764 1095.206)" fill="#231c20"/>
      <path id="Path_125342" data-name="Path 125342" d="M147.093,46.012l-2.5,14.185a.471.471,0,0,1-.929-.163l2.5-14.185a.471.471,0,0,1,.929.163" transform="translate(252.885 1094.411)" fill="#dd475d"/>
      <path id="Path_125343" data-name="Path 125343" d="M86.587,47.665c.129.7.294,4.559.3,5.078.035,2.636,0,5.269.076,7.9h67.593c.132-.609.242-1.25.341-1.9a14.512,14.512,0,0,1,.761-3.965,12.978,12.978,0,0,0,.453-2.553c.042-.454.074-.914.11-1.378Z" transform="translate(235.418 1095.086)" fill="#1d1d1d"/>
      <path id="Path_125344" data-name="Path 125344" d="M102.734,62.011a.4.4,0,0,0,.205-.419c.323-.02.734-.114.78-.435.082-.576-.483-1.062-.885-1.366a7.569,7.569,0,0,0-3.616-1.472,15.061,15.061,0,0,0-2.1-.064c-2.161.034-4.324.068-6.484.175A1.564,1.564,0,0,0,89.051,59.6a2.639,2.639,0,0,0,.175,2.114c.362.532,1.29.582,1.868.631q3.914.323,7.847.336a12.79,12.79,0,0,0,2.737-.2.65.65,0,0,0,.3-.124.239.239,0,0,0,.063-.3,1.225,1.225,0,0,0,.6,0,.492.492,0,0,0,.091-.044" transform="translate(236.129 1098.325)" fill="#eacdcd"/>
      <path id="Path_125345" data-name="Path 125345" d="M47.632,61.937c1.416,1.484,3.05,2.792,5.044,2.9a8.8,8.8,0,0,0,2.983-.517c3.185-.97,6.751-1.038,10.059-1.433,1.605-.192,3.213-.383,4.827-.468,2.448-.128,4.9-.01,7.352.005,5.2.033,10.4-.393,15.588-.82l6.746-.554a.515.515,0,0,0,.573-.637c.054-2.321.114-4.643.12-6.965,0-1.161-.008-2.322-.04-3.483q-.024-.868-.065-1.734c-.014-.3.1-1.168-.2-1.337a.8.8,0,0,0-.388-.072L97.5,46.783c-.764-.01-1.555.256-2.342.287-.844.034-1.687.016-2.53.037-6.082.15-12.162-.153-18.241-.291a117.7,117.7,0,0,0-18.2.694c-3.4.453-6.511.879-8.686,3.876a11.9,11.9,0,0,0-2.014,6.538,3.939,3.939,0,0,0,.163,1.478,4.509,4.509,0,0,0,.926,1.37c.34.389.69.782,1.055,1.165" transform="translate(222.838 1094.807)" fill="#d9041f"/>
      <path id="Path_125346" data-name="Path 125346" d="M48.826,62.522q.308.3.622.6a10.178,10.178,0,0,0,1.72,1.375,8.811,8.811,0,0,0,4.313,1.076h47.963c.012-.01.025-.02.035-.03a1.062,1.062,0,0,0,.226-.761c.021-.943.317-5.177-.788-5.343C89.969,57.493,76.788,57.693,63.779,56.2a12.489,12.489,0,0,1-3.923-.905c-1.6-.748-2.445-2.126-3.786-3.15a5.568,5.568,0,0,0-4.64-.729,7.492,7.492,0,0,0-3.589,2.689,7.817,7.817,0,0,0-1.28,2.272,5.83,5.83,0,0,0-.208,3.355c.392,1.029,1.7,2.028,2.474,2.786" transform="translate(223.053 1096.17)" fill="#d9041f"/>
      <path id="Path_125347" data-name="Path 125347" d="M46.867,57.683a7.842,7.842,0,0,1,1-2.377c.457-.739,1.006-1.424,1.426-2.185a5.166,5.166,0,0,0,.7-2.568,4.948,4.948,0,0,0-.388-1.794,7.868,7.868,0,0,0-2.1,2.014,11.894,11.894,0,0,0-2.013,6.538,3.934,3.934,0,0,0,.162,1.477,4.476,4.476,0,0,0,.917,1.358,14.327,14.327,0,0,1,.3-2.463" transform="translate(222.838 1095.421)" fill="#eacdcd"/>
      <path id="Path_125348" data-name="Path 125348" d="M99.859,61.238a12.235,12.235,0,0,0-4.228-.643c-.057,0-.191.017-.191.1s.137.1.191.1a11.645,11.645,0,0,1,4.036.616.286.286,0,0,0,.26-.035c.061-.063-.008-.112-.068-.133" transform="translate(238.129 1099.042)" fill="#ddbcbc"/>
      <path id="Path_125349" data-name="Path 125349" d="M100.814,60.8a10.977,10.977,0,0,0-4.849-1.158c-.065-.005-.2-.009-.235.068s.078.116.133.12a10.587,10.587,0,0,1,4.681,1.108.3.3,0,0,0,.27,0c.071-.039.068-.1,0-.137" transform="translate(238.215 1098.751)" fill="#ddbcbc"/>
      <path id="Path_125350" data-name="Path 125350" d="M101.106,60.066a8.793,8.793,0,0,0-4.537-1.3c-.056,0-.191.018-.191.1s.138.1.191.1a8.27,8.27,0,0,1,4.268,1.246c.1.067.453-.024.269-.137" transform="translate(238.414 1098.483)" fill="#ddbcbc"/>
      <path id="Path_125351" data-name="Path 125351" d="M57.165,54.579a4.249,4.249,0,0,0-2.8-1.07c-.065,0-.218.021-.218.111s.157.111.218.111a3.7,3.7,0,0,1,2.423.96.338.338,0,0,0,.3.04c.065-.022.154-.085.078-.153" transform="translate(225.49 1096.875)" fill="#901722"/>
      <path id="Path_125352" data-name="Path 125352" d="M96.666,57.607q-7.638-.239-15.265-.73-7.6-.49-15.174-1.234-4.286-.419-8.562-.921c-.068-.008-.24-.009-.268.078s.082.128.152.136q7.629.893,15.285,1.531,7.605.633,15.228,1.013,4.3.215,8.6.349c.064,0,.218-.021.218-.111s-.157-.11-.218-.111" transform="translate(226.484 1097.245)" fill="#901722"/>
      <path id="Path_125353" data-name="Path 125353" d="M52.671,42.74c.209.448.417.893.616,1.339q1.714,3.832,3.6,7.583a1.589,1.589,0,0,0,.393.559,2.264,2.264,0,0,0,1.447.163,2.348,2.348,0,0,0,1.158-.4,2.217,2.217,0,0,0,.8-1.514,7.627,7.627,0,0,0-.282-2.355c-.158-.912-.29-1.827-.434-2.739q-.427-2.694-.853-5.386a17.29,17.29,0,0,0-.722-3.221c-.2-.545-.451-1.068-.665-1.606a10.966,10.966,0,0,1-.778-4.354c.027-1.61.249-3.21.3-4.819a4.844,4.844,0,0,0,.02-1.605c-.153-.353-.558-.21-.916-.256a12.087,12.087,0,0,0-3.3-.107,4.152,4.152,0,0,0-2.774,1.454c-1.066,1.555-.505,3.235-.12,4.885.491,2.1-.086,4.327.307,6.448a25.214,25.214,0,0,0,2.2,5.936" transform="translate(224.119 1087.826)" fill="#eacdcd"/>
      <path id="Path_125354" data-name="Path 125354" d="M58.644,30.189c-.034-.131-.069-.263-.1-.393a10.477,10.477,0,0,1-.294-1.433c-.145-1.247-.327-2.5-.56-3.74a21.851,21.851,0,0,0-2.651-7.565,6.383,6.383,0,0,0-2.509-2.5,3.089,3.089,0,0,0-3.368.319,1.558,1.558,0,0,0-.457.678,6.387,6.387,0,0,0-.116,1.7q-.025,1.021-.048,2.039-.045,2.039-.077,4.077c-.031,2.043-.046,4.088-.03,6.131l0,.38q.006.821.021,1.643a.653.653,0,0,0,.145.486.633.633,0,0,0,.388.123q2.519.227,5.05.308c.929.027,1.855.09,2.783.1.434.005,1.686.192,2.044-.21a.4.4,0,0,0,.1-.281,8.487,8.487,0,0,0-.319-1.861" transform="translate(223.74 1084.846)" fill="#395795"/>
      <path id="Path_125355" data-name="Path 125355" d="M57.083,26.557l-.4-.012q-4.069-.125-8.139-.249l-.112,0,0-.379c1.985.069,3.973.11,5.959.171l2.112.064c.133.005.265.009.4.012.061.132.121.265.184.4" transform="translate(223.74 1088.429)" fill="#65bfd7"/>
      <path id="Path_125356" data-name="Path 125356" d="M54.75,32a3.311,3.311,0,0,0-1.08-.606,1.554,1.554,0,0,1-.863-.708c-.054-.118-.43-.082-.368.051.37.806,1.409.788,1.983,1.361a.289.289,0,0,0,.261.035c.061-.02.129-.072.068-.133" transform="translate(224.967 1089.868)" fill="#ddbcbc"/>
      <path id="Path_125357" data-name="Path 125357" d="M58.777,26.555c-.029-.248-.06-.5-.089-.744-.013-.114-.013-.218-.131-.274a.682.682,0,0,0-.336-.034,16.248,16.248,0,0,1-3.116-.131l-.035,0-.58-1.246v-.008l-.042-.088c-.035-.072-.068-.144-.1-.215l-.012-.014L52.88,20.753c-.246-.511-.477-1.034-.754-1.531a3.226,3.226,0,0,0-.986-1.143,2.008,2.008,0,0,0-1.644-.29c-.072.021-.144.082-.078.151a.334.334,0,0,0,.3.04,1.4,1.4,0,0,1,1.205.321,3.415,3.415,0,0,1,.872,1.141c.251.471.469.96.7,1.442q.366.766.734,1.535c.453.943.955,1.878,1.4,2.831.029.06.057.123.085.184a.32.32,0,0,0-.124.055c-.158.12-.037.338.013.485q.219.637.483,1.256.131.308.274.614a4.006,4.006,0,0,0,.287.581.5.5,0,0,0,.5.128l.017,0c.017.034.033.069.048.1.061.132.121.265.184.4.1.21.195.422.293.632q.384.823.764,1.646c.055.116.431.081.368-.052q-.513-1.1-1.025-2.214c-.064-.132-.125-.264-.185-.4-.029-.059-.056-.119-.084-.178.088-.018.172-.038.26-.059a.2.2,0,0,0,.031-.013,8.329,8.329,0,0,1,1.939-.158c.055,0,.229-.022.218-.111l-.192-1.595m-1.037,1.5a7.57,7.57,0,0,0-1.077.158c-.179.04-.355.089-.533.146a.187.187,0,0,1-.08.014c-.05,0-.059-.034-.077-.072-.043-.074-.08-.154-.116-.231q-.233-.476-.438-.966c-.1-.232-.191-.468-.281-.705-.072-.191-.159-.376-.218-.572a.186.186,0,0,1-.007-.14c.042-.071.151-.084.225-.085a2.2,2.2,0,0,1,.274.031c.138.016.279.03.421.043.285.026.566.044.85.055s.567.016.849.012c.141,0,.282-.005.423-.01.089,0,.193-.021.287-.024a1.309,1.309,0,0,1,.029.256c.013.106.025.213.038.319.025.2.05.409.073.613.047.377.09.755.136,1.134-.26,0-.52.005-.778.025" transform="translate(224.035 1085.923)" fill="#231c20"/>
      <path id="Path_125358" data-name="Path 125358" d="M66.845,46.187q.723-.94,1.413-1.906c3.392-4.755,6.87-10.225,7.672-16.093a3.513,3.513,0,0,0-.043-1.531c-.281-.892-1.11-.994-1.87-1.186a10.75,10.75,0,0,0-3.364-.4,4.092,4.092,0,0,0-2.89,1.3c-.75.968-.744,2.552-.938,3.726-.53,3.232-2.184,5.989-3.713,8.783-1.656,3.025-3.326,6.04-5.077,9.008a5.528,5.528,0,0,0-1.093,3.306,2.6,2.6,0,0,0,1.427,2.031c1.784.836,4.243-2.045,5.253-3.166q1.687-1.871,3.223-3.867" transform="translate(226.34 1088.166)" fill="#eacdcd"/>
      <path id="Path_125359" data-name="Path 125359" d="M75.153,26.976a33.222,33.222,0,0,1-.714,3.328v.005c-.025.089-.051.222-.08.381-.136.717-.338,1.966-.678,2.15a1.174,1.174,0,0,1-.588.086c-1.569-.043-3.138-.085-4.7-.236-.8-.077-1.6-.183-2.387-.33-.812-.15-1.648-.11-1.9-.733a1.555,1.555,0,0,1-.047-.814q.1-.609.182-1.225c.018-.128.035-.255.054-.384a86.469,86.469,0,0,1,1.579-9.657c.287-1.123.3-2.27,1.059-3.226a3.742,3.742,0,0,1,3.278-1.665,4.8,4.8,0,0,1,3.383,1.933,8.759,8.759,0,0,1,1.536,3.673,19.166,19.166,0,0,1,.027,6.714" transform="translate(228.514 1084.982)" fill="#395795"/>
      <path id="Path_125360" data-name="Path 125360" d="M74.391,26.893v0c-.024.09-.05.222-.08.381q-3.969-.425-7.937-.855-1.093-.118-2.185-.246c.02-.128.037-.255.054-.384,2.651.329,5.316.58,7.972.866l2.177.234" transform="translate(228.564 1088.393)" fill="#65bfd7"/>
      <path id="Path_125361" data-name="Path 125361" d="M66.485,16.069,65.341,22q-.574,2.976-1.149,5.953a22.387,22.387,0,0,0-.5,3.286c-.005.132.376.137.383,0a19.773,19.773,0,0,1,.427-2.912l.572-2.963q.574-2.976,1.149-5.953.321-1.669.644-3.337c.024-.12-.354-.141-.381,0" transform="translate(228.412 1085.387)" fill="#231c20"/>
      <path id="Path_125362" data-name="Path 125362" d="M73.062,21.492q-.478,3.569-1.128,7.111-.094.5-.189,1c-.03.158-.06.316-.091.474l-.051.264c-.008.042-.013.093-.022.141l-.007.005a.119.119,0,0,0,.026.2c.076.042.273.054.319-.043a1.608,1.608,0,0,0,.076-.355c.031-.158.061-.316.091-.475.059-.3.115-.6.171-.9q.167-.9.323-1.8.31-1.789.576-3.581.151-1.025.289-2.049c.017-.125-.363-.14-.381,0" transform="translate(230.811 1087.046)" fill="#231c20"/>
      <path id="Path_125363" data-name="Path 125363" d="M72.189,20.376c-.387,1.7-1.557,2.886-2.613,2.647s-1.6-1.815-1.212-3.517,1.557-2.886,2.613-2.646,1.6,1.814,1.212,3.516" transform="translate(229.803 1085.649)" fill="#65bfd7"/>
      <path id="Path_125364" data-name="Path 125364" d="M62.734,46.525a1.864,1.864,0,0,0-.1-1.259,3.03,3.03,0,0,0-.707-.96,3.48,3.48,0,0,0-3.02-1.066,11.837,11.837,0,0,0-1.844.782,12.645,12.645,0,0,1-1.775.3,3.4,3.4,0,0,0-1.075.438A4.9,4.9,0,0,0,52.1,47.982a.7.7,0,0,0,.056.556c.469.624,1.3-.384,1.579-.7.247-.281.507-.7.938-.643a15.266,15.266,0,0,0-.709,1.746,1.071,1.071,0,0,0,.088,1.044.741.741,0,0,0,.8.121,1.9,1.9,0,0,0,.669-.522,9.528,9.528,0,0,0,1-1.307q-.215.609-.43,1.221a3.7,3.7,0,0,0-.247.978.542.542,0,0,0,.016.205c.078.238.542.4.776.431a1.709,1.709,0,0,0,1.148-.456,5.162,5.162,0,0,0,.943-1.141c-.131.646-.393,2.163.761,1.926a1.269,1.269,0,0,0,.853-.785,9.09,9.09,0,0,1,.417-1.2,3.493,3.493,0,0,1,.507-.588,9.814,9.814,0,0,0,1.3-1.953,1.653,1.653,0,0,0,.17-.389" transform="translate(224.857 1093.715)" fill="#eacdcd"/>
      <path id="Path_125365" data-name="Path 125365" d="M51.911,48.695a1.853,1.853,0,0,0-.238.576.63.63,0,0,0-.007.283.536.536,0,0,0,.525.355,1.27,1.27,0,0,0,.639-.215,4.851,4.851,0,0,0,1.3-1.1,6.925,6.925,0,0,0,.8-1.511,1.745,1.745,0,0,0,.209-.626.6.6,0,0,0-.257-.573c-.885-.517-2.19,1.759-2.586,2.271a5.618,5.618,0,0,0-.384.541" transform="translate(224.729 1094.518)" fill="#eacdcd"/>
      <path id="Path_125366" data-name="Path 125366" d="M53.661,49.844a1.858,1.858,0,0,0-.167.6.623.623,0,0,0,.027.282.535.535,0,0,0,.564.291,1.294,1.294,0,0,0,.609-.291,4.812,4.812,0,0,0,1.153-1.247,6.921,6.921,0,0,0,.618-1.6,1.76,1.76,0,0,0,.133-.645.608.608,0,0,0-.324-.539c-.942-.409-1.966,2.009-2.3,2.564a5.692,5.692,0,0,0-.316.582" transform="translate(225.289 1094.776)" fill="#eacdcd"/>
      <path id="Path_125367" data-name="Path 125367" d="M55.865,50.847a1.843,1.843,0,0,0-.047.62.615.615,0,0,0,.081.272.537.537,0,0,0,.61.176,1.29,1.29,0,0,0,.541-.4,4.868,4.868,0,0,0,.889-1.448,6.874,6.874,0,0,0,.294-1.686,1.779,1.779,0,0,0,.007-.66.612.612,0,0,0-.423-.466c-1-.217-1.537,2.353-1.754,2.962a5.463,5.463,0,0,0-.2.633" transform="translate(226 1094.956)" fill="#eacdcd"/>
      <path id="Path_125368" data-name="Path 125368" d="M57.838,51.248a1.889,1.889,0,0,0,.088.616.635.635,0,0,0,.14.247.534.534,0,0,0,.632.04,1.3,1.3,0,0,0,.441-.512,4.835,4.835,0,0,0,.554-1.605,6.9,6.9,0,0,0-.077-1.711,1.766,1.766,0,0,0-.137-.644.608.608,0,0,0-.513-.364c-1.027.005-.991,2.63-1.072,3.272a5.614,5.614,0,0,0-.055.661" transform="translate(226.621 1094.979)" fill="#ffa87d"/>
      <path id="Path_125369" data-name="Path 125369" d="M54.956,46.246c-.024-.406-.431-.464-.757-.36a2.881,2.881,0,0,0-1.075.758,4.673,4.673,0,0,0-.884,1.229c-.04.081.184.12.218.051a4.628,4.628,0,0,1,.876-1.221,4.519,4.519,0,0,1,.546-.462,2.227,2.227,0,0,1,.3-.188c.12-.059.342-.158.464-.052.153.135.072.44.035.6a5.117,5.117,0,0,1-.247.785,12.85,12.85,0,0,1-.733,1.463c-.042.077.182.119.219.051a14.367,14.367,0,0,0,.682-1.341,5.878,5.878,0,0,0,.236-.657,2.028,2.028,0,0,0,.119-.658" transform="translate(224.906 1094.528)" fill="#ddbcbc"/>
      <path id="Path_125370" data-name="Path 125370" d="M56.317,47.182c-.06-.321-.49-.332-.718-.205a1.959,1.959,0,0,0-.423.375c-.157.162-.307.328-.452.5a9.744,9.744,0,0,0-.871,1.215c-.046.073.178.118.218.051a9.812,9.812,0,0,1,.808-1.139c.148-.179.3-.354.462-.522.135-.14.33-.407.539-.436.3-.04.2.394.178.562q-.053.364-.137.725a8.641,8.641,0,0,1-.469,1.434c-.035.085.189.12.218.051a8.931,8.931,0,0,0,.436-1.286c.057-.221.1-.444.144-.669a1.988,1.988,0,0,0,.067-.654" transform="translate(225.398 1094.853)" fill="#ddbcbc"/>
      <path id="Path_125371" data-name="Path 125371" d="M58.152,48.866a3.751,3.751,0,0,0-.035-.513,2.417,2.417,0,0,0-.093-.462.282.282,0,0,0-.272-.183.591.591,0,0,0-.377.152,3.03,3.03,0,0,0-.6.688c-.229.33-.451.663-.677,1-.047.071.174.116.218.051.215-.317.431-.636.646-.952a2.678,2.678,0,0,1,.677-.756c.089-.06.138-.065.171.043.024.082.039.167.055.251a3.852,3.852,0,0,1-.074,1.683c-.02.072.206.1.229.021a3.88,3.88,0,0,0,.135-1.017" transform="translate(226.086 1095.099)" fill="#ddbcbc"/>
      <path id="Path_125372" data-name="Path 125372" d="M59.166,47.688a3.376,3.376,0,0,0-.521,1.186,2.32,2.32,0,0,1-.246.628,2.589,2.589,0,0,1-.451.52c-.078.072.138.127.193.076a2.91,2.91,0,0,0,.43-.475,2.069,2.069,0,0,0,.268-.6,6.728,6.728,0,0,1,.209-.694,2.768,2.768,0,0,1,.336-.589c.05-.067-.171-.115-.218-.051" transform="translate(226.648 1095.084)" fill="#ddbcbc"/>
      <path id="Path_125373" data-name="Path 125373" d="M58.79,42.282a4.579,4.579,0,0,1-3.973,2.212c-.138,0-.138.115,0,.118a4.817,4.817,0,0,0,4.195-2.3c.043-.072-.182-.1-.222-.031" transform="translate(225.664 1093.427)" fill="#ddbcbc"/>
      <path id="Path_125374" data-name="Path 125374" d="M69.036,32.869a1.988,1.988,0,0,1-1.362,1.177c-.06.014-.129.077-.068.133a.306.306,0,0,0,.261.035A2.24,2.24,0,0,0,69.4,32.921c.056-.137-.319-.171-.368-.052" transform="translate(229.602 1090.536)" fill="#ddbcbc"/>
      <g id="Group_221234" data-name="Group 221234" transform="translate(253.932 1137.884)" opacity="0.4">
        <g id="Group_221233" data-name="Group 221233">
          <g id="Group_221232" data-name="Group 221232" clip-path="url(#clip-path-2)">
            <path id="Path_125375" data-name="Path 125375" d="M45.437,47.792a5.586,5.586,0,0,1-.492.533,5.871,5.871,0,0,1-1.083.773,8.4,8.4,0,0,1-2.35.917,11.188,11.188,0,0,1-2.547.256,13.905,13.905,0,0,1-2.4-.154,5.184,5.184,0,0,1-2.053-.808c-.007-.043-.014-.086-.021-.128s-.01-.1-.016-.142c-.01-.115-.014-.229-.014-.342a3.757,3.757,0,0,1,.172-1.124q.047-.157.11-.31a5.68,5.68,0,0,1,4.644-3.269,5.867,5.867,0,0,1,4.924,1.527c.076.078.149.159.219.242a4,4,0,0,1,.65,1.066c.043.106.082.212.115.32a3.882,3.882,0,0,1,.136.63l0,.016" transform="translate(-34.464 -43.938)" fill="#fff"/>
          </g>
        </g>
      </g>
      <path id="Path_125376" data-name="Path 125376" d="M44.524,36.951a21.426,21.426,0,0,0-.021,2.3c0,.246.005.492,0,.737a7.337,7.337,0,0,1-.154,1.358,4.931,4.931,0,0,1-.218.733,4.233,4.233,0,0,1-.641,1.118,6.047,6.047,0,0,1-4.754,2.071,3.882,3.882,0,0,1-3.863-3.345,5.53,5.53,0,0,1,1-3.827l.009-.016c.121-.205.234-.413.341-.623.15-.293.291-.588.426-.888l.012-.022a3.494,3.494,0,0,0,.235-.469.455.455,0,0,0,.013-.054,4.942,4.942,0,0,1,.061-.735,3.123,3.123,0,0,1,2.675-1.8,5.491,5.491,0,0,1,3.546.858,2.922,2.922,0,0,1,1.126,1.122,2.836,2.836,0,0,1,.206,1.485" transform="translate(219.574 1090.736)" fill="#fff"/>
      <path id="Path_125377" data-name="Path 125377" d="M39.943,40.956a1.635,1.635,0,1,1-1.635-1.634,1.635,1.635,0,0,1,1.635,1.634" transform="translate(220.143 1092.533)" fill="#65bfd7"/>
      <path id="Path_125378" data-name="Path 125378" d="M43.6,41.88a4.049,4.049,0,0,1-.362.532,7.777,7.777,0,0,0-.091-2.363,4.776,4.776,0,0,0-6.338-3.411,4.293,4.293,0,0,0-1.182.674l.008-.014c.121-.205.234-.414.342-.624a4.7,4.7,0,0,1,.717-.341,5.1,5.1,0,0,1,6.77,3.644,7.029,7.029,0,0,1,.136,1.9" transform="translate(219.822 1091.52)" fill="#65bfd7"/>
      <path id="Path_125379" data-name="Path 125379" d="M44.067,39.48a7.311,7.311,0,0,1-.154,1.358,5.633,5.633,0,0,0-1.9-4.319,5.556,5.556,0,0,0-3.7-1.071,5.5,5.5,0,0,0-2.084.593,3.29,3.29,0,0,0,.235-.47,5.781,5.781,0,0,1,1.825-.449,5.894,5.894,0,0,1,3.919,1.136,5.177,5.177,0,0,1,1.86,3.222" transform="translate(220.008 1091.243)" fill="#65bfd7"/>
      <path id="Path_125380" data-name="Path 125380" d="M39.427,43.562l-2.491.281a.381.381,0,1,1-.086-.757l2.491-.281a.381.381,0,0,1,.086.757" transform="translate(220.094 1093.598)" fill="#395795"/>
      <path id="Path_125381" data-name="Path 125381" d="M44.493,45.392a10.869,10.869,0,0,1-4.775,2.1,11.319,11.319,0,0,1-1.981.176A10.553,10.553,0,0,1,34.6,47.2c.031-.1.069-.206.108-.308a10.837,10.837,0,0,0,9.568-1.742c.078.078.151.159.221.242" transform="translate(219.508 1094.317)" fill="#65bfd7"/>
      <path id="Path_125382" data-name="Path 125382" d="M45.3,46.47a13.028,13.028,0,0,1-4.824,2.011,14.055,14.055,0,0,1-2.77.278,13.055,13.055,0,0,1-3.226-.4c-.01-.115-.014-.229-.014-.342a13.383,13.383,0,0,0,10.72-1.869c.043.106.081.212.115.32" transform="translate(219.467 1094.623)" fill="#65bfd7"/>
      <path id="Path_125383" data-name="Path 125383" d="M39.011,50.432H39a13.9,13.9,0,0,1-2.423-.157,5.276,5.276,0,0,1-2.1-.829l-.046-.031-.009-.054c-.008-.048-.016-.091-.02-.135s-.009-.08-.014-.121c-.013-.142-.018-.261-.018-.379a3.97,3.97,0,0,1,.178-1.164c.031-.107.072-.213.112-.317A5.833,5.833,0,0,1,39.4,43.894a5.96,5.96,0,0,1,5.033,1.565c.081.081.155.165.227.249a4.085,4.085,0,0,1,.671,1.1c.046.107.085.217.12.329a3.829,3.829,0,0,1,.141.653v.047l-.027.068a6.2,6.2,0,0,1-.5.545,5.937,5.937,0,0,1-1.1.791,8.583,8.583,0,0,1-2.387.931,11.338,11.338,0,0,1-2.561.259m-4.345-1.17a5.052,5.052,0,0,0,1.955.756A13.827,13.827,0,0,0,39,50.171h.013a11.157,11.157,0,0,0,2.5-.252,8.308,8.308,0,0,0,2.314-.9,4.892,4.892,0,0,0,1.5-1.234,4.016,4.016,0,0,0-.127-.567c-.034-.1-.071-.206-.112-.307a3.737,3.737,0,0,0-.63-1.032c-.067-.08-.137-.158-.212-.234a5.714,5.714,0,0,0-4.814-1.49A5.576,5.576,0,0,0,34.9,47.342c-.038.1-.074.2-.106.3a3.729,3.729,0,0,0-.166,1.088q0,.165.016.329c0,.063.009.1.013.136s.007.047.012.071" transform="translate(219.436 1093.915)" fill="#fff"/>
      <path id="Path_125384" data-name="Path 125384" d="M38.534,46.185a1.962,1.962,0,0,1-.253.039c-.172.017-.385.017-.469-.115a6.373,6.373,0,0,1-.248-.946,5.711,5.711,0,0,1-.4-1.434,6.491,6.491,0,0,1,.453-3.146.627.627,0,0,1,.765-.315.5.5,0,0,1,.363.663,5.557,5.557,0,0,0-.389,2.7,5.714,5.714,0,0,0,.461,1.489c.208.513.338.918-.282,1.063m.68.04v0" transform="translate(220.281 1092.814)" fill="#395795"/>
      <path id="Path_125385" data-name="Path 125385" d="M31.629,24.8c.417.128.807.276,1.14.415A11.525,11.525,0,0,1,36.3,27.756q1.736,1.689,3.411,3.437.852.891,1.694,1.791c-.009.123.539.573.635.675.253.269.5.542.761.808a.944.944,0,0,1-.044,1.444,6.185,6.185,0,0,1-1.207,1.152,2.607,2.607,0,0,1-2.467-.141,13.812,13.812,0,0,1-2.044-1.569,23.1,23.1,0,0,0-2.049-1.422A14.256,14.256,0,0,0,32,32.338a10.064,10.064,0,0,0-1.279-.428,14.245,14.245,0,0,0-1.891-.1,2.29,2.29,0,0,1-1.778-.628,2.2,2.2,0,0,1-.282-1.459,7.545,7.545,0,0,1,.562-3.072c.346-.7.4-1.851,1.3-2.109a5.653,5.653,0,0,1,2.988.26" transform="translate(217.111 1087.975)" fill="#eacdcd"/>
      <path id="Path_125386" data-name="Path 125386" d="M36.314,32.511a2.038,2.038,0,0,1,1.238-.857,3.264,3.264,0,0,1,2.066.26,9.128,9.128,0,0,1,1.78,1.141,16.127,16.127,0,0,1,1.809,1.523,4.664,4.664,0,0,1,1.025,1.909,4,4,0,0,1,.071,1.861c-.071.391-.153,1.314-.7,1.324a.854.854,0,0,1-.55-.3.382.382,0,0,1-.175.366c-.27.163-.589-.1-.757-.3A16.843,16.843,0,0,0,40.35,37.56a4.5,4.5,0,0,0-2.3-1.11.865.865,0,0,0-.5.048,1.007,1.007,0,0,0-.377.423l-.529.895a.828.828,0,0,1-.268.315c-.691.4-.66-.863-.657-1.156q.01-1.138.018-2.274a4.007,4.007,0,0,1,.575-2.19" transform="translate(219.852 1090.165)" fill="#eacdcd"/>
      <path id="Path_125387" data-name="Path 125387" d="M29.871,34.5a1.318,1.318,0,0,1-.243.538c-.3.337-.816.073-1.212.04-.225-.021-.449-.039-.674-.056l-.438-.035-.763-.06q-1.775-.143-3.551-.286a1.254,1.254,0,0,1-.551-.131,1.051,1.051,0,0,1-.376-.926,20.188,20.188,0,0,1,1.2-6.469c.256-.819.525-1.636.853-2.431.367-.893.434-1.49,1.643-1.386q1.215.106,2.417.324a26.181,26.181,0,0,1,2.723.644c.14.04.278.084.417.127.377.118.751.242,1.122.377S30.11,33.642,29.871,34.5" transform="translate(215.672 1087.626)" fill="#395795"/>
      <path id="Path_125388" data-name="Path 125388" d="M30.086,24.166c-.162.784-.358,1.561-.579,2.329-.537,1.864-1.216,3.682-1.911,5.491q-.541,1.4-1.083,2.808l-.438-.034.17-.44c.7-1.81,1.417-3.612,2.054-5.445a37.518,37.518,0,0,0,1.37-4.835c.138.04.278.082.415.127" transform="translate(216.9 1087.856)" fill="#65bfd7"/>
      <path id="Union_326" data-name="Union 326" d="M17663.467,4504.159a6.6,6.6,0,0,0-1.885-2.864c-.062-.049.021-.1.066-.106a.26.26,0,0,1,.221.044,6.7,6.7,0,0,1,1.912,2.908c.02.063-.059.094-.143.094S17663.48,4504.21,17663.467,4504.159Zm.885-.284a5.549,5.549,0,0,0-1.48-3.147c-.1-.106.219-.138.289-.062a5.721,5.721,0,0,1,1.516,3.236c.006.048-.061.072-.135.072S17664.359,4503.942,17664.352,4503.875Zm-5.629-2.651a1.988,1.988,0,0,1-.75-.82c-.039-.076.1-.106.143-.106a.242.242,0,0,1,.23.084,1.582,1.582,0,0,0,.129.226l.018.022.008.018a.479.479,0,0,1,.041.049,1.245,1.245,0,0,0,.084.1,1.678,1.678,0,0,0,.186.177l.027.022,0,0,.049.036c.035.026.076.049.111.071a.091.091,0,0,1,.053.076c0,.031-.035.048-.062.062a.251.251,0,0,1-.111.023A.318.318,0,0,1,17658.723,4501.224Zm-2.275-1.8a.386.386,0,0,1-.133-.04c-.018-.013-.057-.044-.049-.071.066-.275.125-.545.164-.825.014-.08.139-.084.2-.08a.289.289,0,0,1,.135.036c.021.013.053.044.047.075-.043.275-.1.55-.162.82-.02.069-.107.085-.172.085Zm-7.437-6.011c.234-.443.492-.878.762-1.3a3.675,3.675,0,0,1,.865-1.068.3.3,0,0,1,.262-.013c.053.022.133.084.057.137a3.644,3.644,0,0,0-.846,1.06c-.262.413-.506.838-.736,1.268a.173.173,0,0,1-.152.06C17649.1,4493.548,17648.963,4493.491,17649.01,4493.409Z" transform="translate(-17400.734 -3374.772)" fill="#ddbcbc" stroke="rgba(0,0,0,0)" stroke-miterlimit="10" stroke-width="1"/>
      <path id="Path_125394" data-name="Path 125394" d="M1.086,66.824a.65.65,0,0,1-.093-.148.864.864,0,0,1-.031-.516,3.711,3.711,0,0,1,.213-.756,12.475,12.475,0,0,1,1.683-2.822c.573-.767,1.074-1.587,1.685-2.325.525-.632,1.13-1.2,1.635-1.848.848-1.084,1.411-2.373,2.33-3.4a1.492,1.492,0,0,1,.683-.49c.434-.119.735.138,1.07.409.35.282.771.5,1.094.814a2.824,2.824,0,0,1,.823.972,10.65,10.65,0,0,1,.465,1.678,7.424,7.424,0,0,1,.009,3.4,1.428,1.428,0,0,1-.708,1.029,1.619,1.619,0,0,1-.6.081,8.888,8.888,0,0,0-5.876,2.381c-.324.306-.622.636-.959.93a5.724,5.724,0,0,1-1.38.884,1.719,1.719,0,0,1-1.753-.027,1.276,1.276,0,0,1-.287-.247" transform="translate(209.207 1097.175)" fill="#231c20"/>
      <path id="Path_125395" data-name="Path 125395" d="M.239,66.967a.8.8,0,0,1-.159-.905,4.741,4.741,0,0,1,.3-.443q.447-.666.895-1.335,1.148-1.716,2.3-3.431.9-1.346,1.8-2.689c.061-.024.123-.046.182-.073a1.45,1.45,0,0,0,.7-.666.74.74,0,0,0,.086-.447.447.447,0,0,0-.06-.163l.952-1.422c.29-.434.944-1.971,1.605-1.882a1.481,1.481,0,0,1,.6.268,5.186,5.186,0,0,1,.567.441,1.632,1.632,0,0,1,.351.4c.52.925-1.118,2.316-1.593,2.906-.712.885-1.72,1.588-2.483,2.448a22.477,22.477,0,0,0-3.841,6.044c-.172.4-.18,1.019-.491,1.337S.885,67.483.491,67.2a1.432,1.432,0,0,1-.252-.23" transform="translate(208.92 1096.874)" fill="#395795"/>
      <path id="Path_125396" data-name="Path 125396" d="M22.05,43.868c3,1.3,4.875,3.584,7.393,5.523,2.6,2,5.689,3.21,8.545,4.783a37.306,37.306,0,0,1,7.13,5.1,6.826,6.826,0,0,1,1.255,1.4c.9,1.452.705,3.3.445,4.992a8.943,8.943,0,0,1-.619,2.424A3.159,3.159,0,0,1,44.457,69.8a4.546,4.546,0,0,1-1.693.138,33.374,33.374,0,0,1-5.3-.61c-1.813-.385-3.571-1-5.381-1.4-2.017-.449-4.084-.636-6.106-1.066a52.009,52.009,0,0,1-5.437-1.578c-3.949-1.3-7.8-2.48-10.939-5.353a10.052,10.052,0,0,1-1.395-1.52,13.714,13.714,0,0,1-1.842-4.634c-.755-2.877-1.588-6.1-.708-9.044.73-2.438,4.16-2.536,6.285-2.6a24.02,24.02,0,0,1,9.689,1.558c.14.056.278.115.417.175" transform="translate(210.537 1093.39)" fill="#395795"/>
      <path id="Path_125397" data-name="Path 125397" d="M9.473,48c.859-.017,1.717-.111,2.576-.161.84-.048,1.68-.084,2.521-.112,1.676-.056,3.351-.1,5.028-.135.862-.016,1.724-.021,2.587-.008.76.012,1.518.029,2.278.017.953-.013,1.917-.04,2.873.018a20.044,20.044,0,0,0-5.286-3.751c-.138-.06-.277-.118-.417-.174a24.027,24.027,0,0,0-9.691-1.559c-2.124.06-5.555.158-6.283,2.6a9.813,9.813,0,0,0-.372,3.134c1.395.033,2.788.162,4.186.135" transform="translate(210.537 1093.39)" fill="#231c20"/>
      <path id="Path_125398" data-name="Path 125398" d="M5.563,49.387a1.242,1.242,0,0,1-.306-.035c-.367-.091-.838-.4-1-1.361a8.83,8.83,0,0,1-.081-2.339,2.707,2.707,0,0,1,.451-1.391A2.129,2.129,0,0,1,6.67,43.5l-.119.643a1.474,1.474,0,0,0-1.4.511,2.129,2.129,0,0,0-.327,1.066A8.13,8.13,0,0,0,4.9,47.881c.057.337.193.756.513.836a1.319,1.319,0,0,0,.509-.027l.789-.137.112.644-.789.138a2.812,2.812,0,0,1-.473.052" transform="translate(210.184 1093.8)" fill="#395795"/>
      <path id="Path_125399" data-name="Path 125399" d="M9.606,49.906c-.223-2.126-.43-4.284-.615-6.411l1.085-.094c.184,2.121.392,4.271.614,6.392Z" transform="translate(211.672 1093.781)" fill="#395795"/>
      <path id="Path_125400" data-name="Path 125400" d="M15.744,49.034c-.307-1.949-.648-3.919-1.013-5.858l1.071-.2c.367,1.949.71,3.93,1.019,5.889Z" transform="translate(213.428 1093.651)" fill="#395795"/>
      <path id="Path_125401" data-name="Path 125401" d="M37.578,60.78c1.187.487,2.475.714,3.615,1.318.859.454,1.66.858,2.548,1.254a1.068,1.068,0,0,1,.7,1.2,1.254,1.254,0,0,1-.477.551,5.25,5.25,0,0,1-1.286.7,10.47,10.47,0,0,1-2.333.488,32.443,32.443,0,0,1-6.215.417c-3.1-.192-6.206-.593-9.289-.965-5.208-.628-10.373-1.579-15.533-2.528a.7.7,0,0,1-.354-.137.657.657,0,0,1-.159-.41A18.112,18.112,0,0,1,8.9,58.5c.074-.721-.054-2.225.84-2.474a2.6,2.6,0,0,1,1.3.112,24.589,24.589,0,0,0,4.844.58c.876.037,1.754.057,2.628.094A56.376,56.376,0,0,1,37.578,60.78" transform="translate(211.586 1097.632)" fill="#395795"/>
      <path id="Path_125402" data-name="Path 125402" d="M36.443,60.346A12.179,12.179,0,0,0,32,58.716c-1.729-.342-3.475-.61-5.215-.895-1.8-.3-3.609-.575-5.42-.812s-3.639-.439-5.467-.572-3.641-.2-5.464-.183c-.232,0-.464.008-.7.013-.065,0-.218.018-.218.111s.157.112.218.111c1.794-.042,3.59,0,5.381.118s3.6.3,5.386.52,3.565.49,5.343.776c1.744.281,3.487.569,5.227.878a14.244,14.244,0,0,1,4.486,1.374c.171.1.34.2.5.3a.352.352,0,0,0,.3.039c.054-.017.167-.093.078-.151" transform="translate(211.834 1097.714)" fill="#231c20"/>
      <path id="Path_125403" data-name="Path 125403" d="M8.247,55.529a6.106,6.106,0,0,1-1.172-1.892c-.047-.1-.368-.071-.316.044a6.241,6.241,0,0,0,1.205,1.932.246.246,0,0,0,.223.03c.052-.016.112-.061.059-.114" transform="translate(210.986 1096.895)" fill="#231c20"/>
      <path id="Path_125404" data-name="Path 125404" d="M26.157,49.129a22.79,22.79,0,0,0-6.089-1.181c-.592-.05-1.183-.091-1.775-.132-.056,0-.174-.008-.2.059s.067.1.115.1a35.037,35.037,0,0,1,6.119.782,15.837,15.837,0,0,1,1.667.513c.115.043.364-.069.165-.144" transform="translate(214.455 1095.132)" fill="#231c20"/>
      <path id="Path_125405" data-name="Path 125405" d="M20.025,24.757q.3-1.526.488-3.073a14.755,14.755,0,0,1,.768-3.9,11.593,11.593,0,0,1,1.143-2A4.873,4.873,0,0,1,23.7,14.356a4.481,4.481,0,0,1,1.742-.576,1.531,1.531,0,0,0,.639-.2c.781-.547-.852-1.634-1.309-1.779a4.931,4.931,0,0,0-1.784-.141,9.183,9.183,0,0,0-2.462.434c-2.314.807-3.921,2.939-4.96,5.158s-1.66,4.623-2.8,6.793c-1.593,3.034-4.216,5.664-4.7,9.056-.235,1.659.21,3.714,1.9,4.424a5.39,5.39,0,0,0,4.746-.464,8.353,8.353,0,0,0,3.172-3.7,19.1,19.1,0,0,0,1.366-4.738c.234-1.3.513-2.568.769-3.862" transform="translate(211.371 1084.061)" fill="#0a0b0b"/>
      <path id="Path_125406" data-name="Path 125406" d="M33.851,24.2a3.384,3.384,0,0,0-2.882-2.535q-.478-.121-.961-.223a27.436,27.436,0,0,0-4.114-.552,15.143,15.143,0,0,0-9.618,2.737c-3.234,2.3-4.74,5.654-6.085,9.278-1.185,3.189-2.082,6.474-2.978,9.753L5.567,48.692a14.386,14.386,0,0,0-.5,2.351c-.086.862.046,1.522.94,1.65a12.97,12.97,0,0,0,3.11-.031c1.241-.127,2.467-.354,3.7-.539A15.4,15.4,0,0,1,16.195,52q2.331.133,4.666.064c1.093-.031,3.223.257,4.029-.624a2.548,2.548,0,0,0,.449-.825c.782-2.037,1.042-4.158,2.052-6.1a53.088,53.088,0,0,0,2.479-4.741,3,3,0,0,0,.572.005c.179-.057.183-.306.225-.477a13.906,13.906,0,0,0,.268-1.407A3.742,3.742,0,0,0,31.026,37c-.031-.249-.165-.17-.367-.215a19.615,19.615,0,0,1,.367-2.209,15.5,15.5,0,0,1,1.33-3.818c.367-.771.99-1.424,1.358-2.215a5.72,5.72,0,0,0,.137-4.344" transform="translate(210.463 1086.884)" fill="#395795"/>
      <path id="Path_125407" data-name="Path 125407" d="M27.779,23.1a1,1,0,0,1-.043.3,2.916,2.916,0,0,1-1.076,1.484c-.068.05-.136.1-.206.144-.4.264-.825.486-1.216.764a5.166,5.166,0,0,0-.547.453c-.005.08-.01.159-.013.239a31.7,31.7,0,0,1-.358,3.9,16.747,16.747,0,0,0-.308,1.817l-.024.1c-.157-.831-.345-1.659-.581-2.471a14.377,14.377,0,0,0-1.138-2.881,13.406,13.406,0,0,0-1.408-1.921,22.119,22.119,0,0,1-1.6-2.138,5.689,5.689,0,0,1-.667-1.391c.227-.034.453-.063.682-.086a19.168,19.168,0,0,0,2.94-1.836,1.274,1.274,0,0,1,.521-.192c.253-.02.507.151.765.183a4.667,4.667,0,0,1,1.113.2,5.8,5.8,0,0,1,2.121,1.455A3.344,3.344,0,0,1,27.779,23.1" transform="translate(214.609 1086.429)" fill="#eacdcd"/>
      <path id="Path_125408" data-name="Path 125408" d="M26.357,22.525a1,1,0,0,1-.043.3,4.914,4.914,0,0,1-1.064,1.627c-.4.264-.825.486-1.216.764a5.038,5.038,0,0,0-.547.453c-.005.08-.01.159-.014.239a4.692,4.692,0,0,1-.947-3.027c0-.878.5-1.737,1.5-1.631a2.837,2.837,0,0,1,1.258.575c.168.112,1.077.524,1.079.7" transform="translate(215.813 1086.999)" fill="#ddbcbc"/>
      <path id="Path_125409" data-name="Path 125409" d="M27.771,27.464a.25.25,0,0,0-.235.068,14.012,14.012,0,0,0-2.47,4.81c-.1.336-.34.842-.137,1.185a8.373,8.373,0,0,0,.867-2.222,13.919,13.919,0,0,1,1.224-2.468,13.7,13.7,0,0,1,.884-1.252c.054-.068-.1-.114-.133-.12" transform="translate(216.525 1088.903)" fill="#231c20"/>
      <path id="Path_125410" data-name="Path 125410" d="M25.064,32.952l-.844-.031L23.8,32.9a1.078,1.078,0,0,0-.372.01c-.206.068-.183.372-.21.549l-.133.85c-.044.283-.088.567-.132.85l-.059.372a1.365,1.365,0,0,0-.051.388c.04.215.465.166.618.176l.866.052c.056,0,.191-.02.191-.1s-.137-.094-.191-.1l-.7-.043-.379-.022c-.059,0-.072-.005-.038,0s.029-.005.02-.034a.516.516,0,0,0,.025-.159l.219-1.408c.037-.23.072-.461.108-.691l.054-.346a.713.713,0,0,0,.025-.157h.012l1.4.052c.056,0,.191-.02.191-.1s-.137-.094-.191-.1" transform="translate(215.908 1090.566)" fill="#231c20"/>
      <path id="Path_125411" data-name="Path 125411" d="M26.117,24.294q-.108,1.534-.213,3.067a8.73,8.73,0,0,1-.144,1.43,1.192,1.192,0,0,1-.748.922.119.119,0,0,0-.1.084c-.054.242.315.3.3.533a3.57,3.57,0,0,1-.155.6l-.161.6-.478,1.8a8.942,8.942,0,0,0-.88-1.689,4.8,4.8,0,0,0-.371-.473q-.1-.116-.212-.223a2.247,2.247,0,0,1-.223-.206c-.082-.11-.007-.212.054-.312s.129-.212.193-.316c.128-.212.257-.422.385-.632.035-.057-.05-.1-.088-.111l-1.063-.389-.507-.185a1.376,1.376,0,0,1-.448-.2.834.834,0,0,1-.195-.434c-.043-.175-.08-.35-.115-.526-.065-.329-.121-.66-.2-.986A4.884,4.884,0,0,0,20,24.9c-.359-.515-.788-.978-1.143-1.5a5.427,5.427,0,0,1-.866-2.077c-.026-.14-.4-.12-.381,0a5.542,5.542,0,0,0,.739,1.916c.346.552.791,1.034,1.177,1.559a4.876,4.876,0,0,1,.844,1.818c.08.342.138.688.208,1.033.033.168.068.336.11.5a1.221,1.221,0,0,0,.167.444.878.878,0,0,0,.421.269c.2.074.4.146.6.219l1.089.4-.375.614c-.064.1-.131.209-.192.316a.389.389,0,0,0-.077.265.408.408,0,0,0,.149.208c.088.08.174.158.256.244a4.575,4.575,0,0,1,.4.483,10.724,10.724,0,0,1,1.152,2.306c.039.1.34.107.368,0q.319-1.2.637-2.394c.1-.383.229-.765.307-1.152a.337.337,0,0,0-.118-.333c-.061-.059-.157-.112-.171-.2.908-.319.916-1.463.972-2.271q.114-1.64.229-3.282c.009-.131-.372-.138-.381,0" transform="translate(214.309 1086.996)" fill="#231c20"/>
      <path id="Path_125412" data-name="Path 125412" d="M21.549,17.327a6.34,6.34,0,0,1,1.028-2.214,7.042,7.042,0,0,1,2.984-2.333,3.485,3.485,0,0,1,2.342-.276,16.945,16.945,0,0,1,2.471.986,6.488,6.488,0,0,1,3.087,2.942,4.234,4.234,0,0,1,.046,3.306c-.409.918-1.256,1.549-1.651,2.453a2.589,2.589,0,0,0-.118,1.529c.18.923,1.067,2.2-.3,2.513a2.033,2.033,0,0,0-1.363.862c-.579.825-1.226,2.27-2.39,2.326a2.193,2.193,0,0,1-1.141-.3,8.023,8.023,0,0,1-3.074-3.35,15.631,15.631,0,0,1-.618-1.683c-.607-1.776-1.488-3.521-1.477-5.4a5.939,5.939,0,0,1,.171-1.366" transform="translate(215.463 1084.293)" fill="#eacdcd"/>
      <path id="Path_125413" data-name="Path 125413" d="M28.205,18.97c-.179-.077-.649-.29-.455-.364a1.852,1.852,0,0,1,1.992.487c.251.282.209.741-.263.588a1.568,1.568,0,0,1-.383-.217A5.672,5.672,0,0,0,28.268,19c-.007,0-.029-.013-.063-.027" transform="translate(217.398 1086.159)" fill="#0a0b0b"/>
      <path id="Path_125414" data-name="Path 125414" d="M28.785,19.946a.418.418,0,0,0-.311-.537c-.349-.065-.6.452-.646.729a.361.361,0,0,0,.409.518.883.883,0,0,0,.549-.71" transform="translate(217.422 1086.438)" fill="#231c20"/>
      <path id="Path_125415" data-name="Path 125415" d="M25.437,21.733a4.141,4.141,0,0,1,1-.594,9.338,9.338,0,0,0,1-.306,6.917,6.917,0,0,0,1.754-1.141,17.442,17.442,0,0,0,2.108-2.3c-.077.1-.027.611-.051.767a3.225,3.225,0,0,1-.231.824c-.193.44-.364.785.3.812a4.382,4.382,0,0,0,1.061-.086.643.643,0,0,0,.566.418A1.862,1.862,0,0,0,33.672,20a1.161,1.161,0,0,1,.238-.055,1.824,1.824,0,0,1,.223.008,1.567,1.567,0,0,0,1.6-1.322,4.494,4.494,0,0,0-1.224-3.626,15.79,15.79,0,0,0-2.915-2.124,8.229,8.229,0,0,0-3.507-1.319c-1.9-.242-4.736.142-6.117,1.643a10.85,10.85,0,0,0-1.553,3.175,16.723,16.723,0,0,0-1.2,4.037,4.058,4.058,0,0,0,.088,1.9c.539,1.539,2.007,1.374,3.264.949a11.965,11.965,0,0,0,2.875-1.541" transform="translate(214.777 1084.018)" fill="#0a0b0b"/>
      <path id="Path_125416" data-name="Path 125416" d="M26.01,18.083a1.712,1.712,0,0,1,.18.8,2.657,2.657,0,0,1-.756,1.87c-.479.453-1.382.768-1.808.09a2.006,2.006,0,0,1-.246-.885,3.112,3.112,0,0,1,.242-1.747,1.372,1.372,0,0,1,2.006-.569,1.2,1.2,0,0,1,.381.441" transform="translate(216.068 1085.825)" fill="#eacdcd"/>
      <path id="Path_125417" data-name="Path 125417" d="M27.563,23.5l-.869-.49a.307.307,0,0,0-.27,0c-.025.014-.056.035-.056.069s.031.055.056.068l.869.49a.3.3,0,0,0,.27,0c.026-.014.056-.035.056-.068s-.031-.055-.056-.069" transform="translate(216.99 1087.531)" fill="#e06f63"/>
      <path id="Union_325" data-name="Union 325" d="M17649.018,4513.387a7.149,7.149,0,0,1,1.691-5.533c.07-.076.385-.022.283.084a7.074,7.074,0,0,0-1.65,5.449c0,.058-.076.088-.16.088S17649.02,4513.446,17649.018,4513.387Zm15.285-11.176a2.2,2.2,0,0,1-.963-.923,2.7,2.7,0,0,1-.275-1.3,10.744,10.744,0,0,1,.111-1.459,11.584,11.584,0,0,1,.785-2.853c.045-.1.363-.075.314.044a11.753,11.753,0,0,0-.514,1.526,10.849,10.849,0,0,0-.373,2.822,2.528,2.528,0,0,0,.3,1.233,1.979,1.979,0,0,0,.848.794.066.066,0,0,1,0,.12.262.262,0,0,1-.115.026A.234.234,0,0,1,17664.3,4502.21Zm-8.687-.475a11.414,11.414,0,0,1,1.322-5.333c.053-.1.373-.062.314.044a11.306,11.306,0,0,0-1.309,5.289c0,.06-.082.09-.164.09S17655.615,4501.8,17655.615,4501.736Zm8.963-.342a2,2,0,0,1-.475-.71c-.059-.115.266-.146.314-.044a2.137,2.137,0,0,0,.381.621.9.9,0,0,0,.289.191.319.319,0,0,0,.119.04.217.217,0,0,0,.063.009h.035l.031,0c.059,0,.168,0,.2.058s-.066.1-.115.106a1.043,1.043,0,0,1-.842-.266Zm-10.006-.936a15.387,15.387,0,0,1,.9-3.04,10.413,10.413,0,0,1,3.248-4.379,7.888,7.888,0,0,1,4.969-1.664c.045,0,.16.018.16.084s-.111.084-.16.084a6.806,6.806,0,0,0-2.844.523,8.926,8.926,0,0,0-3.971,3.336,13.742,13.742,0,0,0-1.971,5.054c-.01.057-.09.083-.168.083S17654.564,4500.511,17654.572,4500.458Zm23.268-1.864c-.031,0-.16-.049-.117-.1a2.747,2.747,0,0,0,.432-1.992,2.306,2.306,0,0,0-.949-1.819c-.16-.1.141-.177.23-.12a2.43,2.43,0,0,1,1.037,1.841,2.9,2.9,0,0,1-.434,2.134.19.19,0,0,1-.156.058Zm-.854-.408c-.029,0-.158-.044-.115-.1a1.674,1.674,0,0,0,.279-1.588c-.049-.12.275-.142.316-.044a1.777,1.777,0,0,1-.275,1.677.194.194,0,0,1-.15.063C17677.023,4498.191,17677,4498.186,17676.986,4498.186Zm-9.471-1.61c-.049-.009-.143-.036-.117-.1s.146-.066.2-.058a10.226,10.226,0,0,0,1.836.146,9.646,9.646,0,0,0,3.111-.559,5.313,5.313,0,0,0,2.311-1.535c.066-.08.377-.036.275.084a4.607,4.607,0,0,1-1.246,1.051,8.457,8.457,0,0,1-2.961,1,10.67,10.67,0,0,1-3.41-.027Zm.877-1.118a3.266,3.266,0,0,1-1.135-.5,3.728,3.728,0,0,1-.844-.888c-.066-.093.254-.137.314-.044a3.489,3.489,0,0,0,.795.834,2.822,2.822,0,0,0,1.039.448,6.924,6.924,0,0,0,2.475-.031c.053,0,.178,0,.205.058s-.066.1-.115.106a13.053,13.053,0,0,1-1.6.133A4.855,4.855,0,0,1,17668.393,4495.458Zm-3.828-2.205c-.053-.018-.111-.062-.062-.115l1.438-1.389a.26.26,0,0,1,.223-.031c.049.018.109.063.057.116-.479.461-.953.927-1.434,1.389a.206.206,0,0,1-.137.042A.307.307,0,0,1,17664.564,4493.252Zm0-.341c-.053,0-.133-.036-.115-.1.133-.448.293-.892.471-1.327.045-.1.363-.071.314.044-.178.435-.336.878-.471,1.327-.012.048-.09.062-.146.062A.291.291,0,0,1,17664.568,4492.911Zm3.852-1.5c-.053-.031-.066-.093,0-.12a3.864,3.864,0,0,1,2.6-.128c.055.018.111.062.059.115a.247.247,0,0,1-.223.031,3.232,3.232,0,0,0-2.209.1.39.39,0,0,1-.129.026A.207.207,0,0,1,17668.42,4491.416Z" transform="translate(-17428.523 -3395.122)" fill="#e6e6e6" stroke="rgba(0,0,0,0)" stroke-miterlimit="10" stroke-width="1"/>
      <path id="Path_125430" data-name="Path 125430" d="M20.129,25.715a3.627,3.627,0,0,0-3.58-2.15c-.056,0-.191.016-.191.1s.138.1.191.1a3.272,3.272,0,0,1,3.212,2.007c.051.116.427.085.368-.052" transform="translate(213.926 1087.708)" fill="#231c20"/>
      <path id="Path_125431" data-name="Path 125431" d="M14.93,38.478a13.162,13.162,0,0,1,3.533-1.686,5.178,5.178,0,0,1,1.834-.278,2.614,2.614,0,0,1,1.366.49,1.85,1.85,0,0,1,.661,1.268,17.349,17.349,0,0,0,2.107,5.561,3.447,3.447,0,0,1,.71,1.5,4.005,4.005,0,0,1-.071,1.643,2.991,2.991,0,0,1-.384.906,3.164,3.164,0,0,1-1.263,1.063,4.518,4.518,0,0,1-2.468.426,7.429,7.429,0,0,1-1.194-.3,2.827,2.827,0,0,1-1.138-.432,4.618,4.618,0,0,1-.8-.9,28.925,28.925,0,0,1-3.818-6.172,2.666,2.666,0,0,1-.221-1.892,2.62,2.62,0,0,1,1.061-1.148l.08-.055" transform="translate(213.109 1091.671)" fill="#eacdcd"/>
      <path id="Path_125432" data-name="Path 125432" d="M19.736,42.126a7.56,7.56,0,0,1,1.9-.59c1.241-.218,2.248.547,3.176,1.251q1.92,1.458,3.936,2.783a72.162,72.162,0,0,0,8.385,4.746c1.155.555,2.821,1.074,2.795,2.615a2,2,0,0,1-.96,1.8,2.791,2.791,0,0,1-1.57.106c-1.5-.188-3-.376-4.471-.713A41.459,41.459,0,0,1,18.26,47.484a4.359,4.359,0,0,1-1.071-.956c-1.284-1.778,1.127-3.74,2.547-4.4" transform="translate(214.068 1093.199)" fill="#eacdcd"/>
      <path id="Path_125433" data-name="Path 125433" d="M13.471,46.323l.094.349a.241.241,0,0,0,.364.214l9.635-2.939a1.71,1.71,0,0,0,.842-.444c.477-.563-.332-2.884-.448-3.576q-.372-2.22-.743-4.438c-.447-2.668-.607-5.42-1.61-7.962a3.915,3.915,0,0,0-2.224-2.54,5.385,5.385,0,0,0-3.4-.227,7.026,7.026,0,0,0-4.139,3.3A7.457,7.457,0,0,0,10.88,31.9c0,1.233.36,2.428.307,3.65a17.912,17.912,0,0,0,.72,4.985c.516,1.929,1.042,3.857,1.565,5.784" transform="translate(212.25 1088.024)" fill="#395795"/>
      <path id="Path_125434" data-name="Path 125434" d="M40.592,48.1q.353-.315.684-.652c.157-.158.319-.392.2-.582a.446.446,0,0,0-.4-.161,3.63,3.63,0,0,0-1.839.9c-.791.538-2.065,1.259-3.06,1.029a1,1,0,0,1-.644-.737c-.067-.2-.022-.949-.161-1.053-.648-.482-2.02,1.019-2.387,1.371a2.539,2.539,0,0,0-.69.9,2.371,2.371,0,0,0-.08.955c.025.4.064.81.116,1.212a2.68,2.68,0,0,0,.272.989c.4.7,1.268.922,1.95,1.226a15.1,15.1,0,0,0,2.842.727,17.027,17.027,0,0,0,3.415.461c.526.01,1.169-.491.384-.768l-2.227-.788a.717.717,0,0,1-.359-.214c-.226-.307.6-.49.782-.532a37.581,37.581,0,0,0,3.756-.716,1.094,1.094,0,0,0,.421-.217.42.42,0,0,0,.133-.43c-.084-.236-.393-.282-.644-.285-.66-.008-1.316.046-1.973.1-.29.025-.585.056-.874.093-.313.038-.594.187-.9,0l3.539-1.7c.187-.089.4-.223.4-.43-.008-.239-.3-.349-.539-.364-1.476-.1-2.743,1.037-4.191,1.337.705-.542,1.413-1.085,2.075-1.678" transform="translate(218.775 1094.794)" fill="#eacdcd"/>
      <path id="Path_125435" data-name="Path 125435" d="M23.312,37.689c-.119.048-.239.1-.358.141-.18.072-.362.141-.543.209-1.817.677-3.682,1.212-5.551,1.728q-1.973.545-3.946,1.084l-.358.1c-.033-.136-.064-.273-.094-.409l.358-.1,1.362-.375c1.869-.513,3.746-1.008,5.6-1.584,1.046-.324,2.084-.68,3.1-1.087.12-.047.239-.1.359-.145.021.146.044.293.068.438" transform="translate(212.734 1091.899)" fill="#65bfd7"/>
      <path id="Path_125436" data-name="Path 125436" d="M17.687,31.025c.248,1.7-.466,3.208-1.6,3.373s-2.25-1.076-2.5-2.773.466-3.208,1.6-3.373,2.249,1.076,2.5,2.773" transform="translate(213.064 1089.141)" fill="#65bfd7"/>
      <path id="Path_125437" data-name="Path 125437" d="M22.411,42.951a6.837,6.837,0,0,0-.6-1.3c-.043-.072-.162-.078-.235-.068-.046.007-.176.047-.133.119a6.806,6.806,0,0,1,.6,1.3c.026.074.175.076.235.068s.159-.042.133-.12" transform="translate(215.48 1093.224)" fill="#ddbcbc"/>
      <path id="Path_125438" data-name="Path 125438" d="M33.051,48.281a.3.3,0,0,0-.269,0c-.026.014-.056.035-.056.069s.031.054.056.068l.027.017,0,0,.005,0c.018.013.037.025.054.039a1.047,1.047,0,0,1,.1.085,1.094,1.094,0,0,1,.162.188,1.251,1.251,0,0,1,.2.473c.014.078.124.1.191.1a.278.278,0,0,0,.135-.029c.024-.012.063-.037.056-.068a1.4,1.4,0,0,0-.663-.946" transform="translate(218.936 1095.265)" fill="#ddbcbc"/>
      <path id="Path_125439" data-name="Path 125439" d="M13.476,44.436q-.233-.981-.457-1.964c-.033-.136-.064-.273-.094-.409-.02-.084-.038-.166-.057-.249q-1.06-4.7-1.915-9.441c-.021-.121.357-.14.381,0q.239,1.324.494,2.645.672,3.485,1.455,6.948c.033.136.063.273.094.409q.235,1.032.481,2.062c.029.116-.347.14-.381,0" transform="translate(212.271 1090.376)" fill="#231c20"/>
      <path id="Path_125440" data-name="Path 125440" d="M21.476,42.788c.022.121-.357.14-.381,0q-.172-.942-.325-1.887c-.024-.144-.047-.289-.068-.434q-.086-.527-.162-1.057-.435-3-.671-6.029t-.27-6.061c0-.136.38-.136.381,0q.02,1.71.1,3.421.147,3.031.5,6.046.2,1.773.479,3.535c.022.146.044.291.069.436.107.678.225,1.356.347,2.03" transform="translate(214.918 1088.829)" fill="#231c20"/>
      <path id="Path_125441" data-name="Path 125441" d="M42.627,50.829a1.744,1.744,0,0,0-.9-.179,6.5,6.5,0,0,0-.982.06c-.636.081-1.268.217-1.908.242l1.619-.806a15.841,15.841,0,0,0,1.516-.819c.131-.084.539-.281.556-.444.014-.138-.205-.278-.3-.338a1.117,1.117,0,0,0-.549-.14,3.143,3.143,0,0,0-1.131.223c-.764.273-1.468.688-2.239.943l-.3.088.007-.007a8.024,8.024,0,0,0,2.619-2.445.325.325,0,0,0,.04-.34.449.449,0,0,0-.3-.2,1.346,1.346,0,0,0-.885.278l-2,1.072a5.061,5.061,0,0,1-1.089.5,2.567,2.567,0,0,1-1.17.026c-.129-.026-.252.1-.073.133a3.03,3.03,0,0,0,1.77-.172c.327-.136.635-.321.946-.488l.93-.5.929-.5a1.759,1.759,0,0,1,.453-.215.205.205,0,0,1,.223.3,3.486,3.486,0,0,1-.524.733,6.959,6.959,0,0,1-.633.639,9.107,9.107,0,0,1-.989.773,3.3,3.3,0,0,0-.788.521c-.119.15.094.253.222.157.081-.064.205-.054.31-.093.384-.145.773-.259,1.148-.422.4-.172.785-.363,1.182-.532a4.342,4.342,0,0,1,1.016-.315.806.806,0,0,1,.9.311l.005.005a11.03,11.03,0,0,1-2.04,1.185l-1.771.882h-.009c-.04,0-.136.013-.136.072l-.376.187c-.052.026-.043.071,0,.1a.223.223,0,0,0,.193,0l.434-.215a10.041,10.041,0,0,0,1.745-.174,5.913,5.913,0,0,1,1.862-.1.5.5,0,0,1,.376.21.274.274,0,0,1-.064.368,2.116,2.116,0,0,1-.838.354c-.616.159-1.252.248-1.874.381q-.539.116-1.075.243l-.518.128a1.816,1.816,0,0,0-.483.168c-.027.017-.038.033-.037.047-.061.018-.1.057-.03.1a8.252,8.252,0,0,0,1.169.641c.393.175.8.291,1.2.439.127.047.477.183.462.36-.009.107-.176.167-.256.2a2.027,2.027,0,0,1-.291.1,2.086,2.086,0,0,1-1.263-.056c-.1-.035-.3.06-.137.12a2.563,2.563,0,0,0,1.1.136,2.468,2.468,0,0,0,.542-.112,1.392,1.392,0,0,0,.481-.232c.3-.265-.226-.532-.434-.614-.372-.148-.761-.246-1.131-.4a8.221,8.221,0,0,1-1.187-.635,1.786,1.786,0,0,1,.475-.158l.571-.14q.531-.125,1.062-.238a20.186,20.186,0,0,0,2.013-.428,1.725,1.725,0,0,0,.763-.392.393.393,0,0,0-.129-.59" transform="translate(219.65 1094.778)" fill="#ddbcbc"/>
      <path id="Path_125442" data-name="Path 125442" d="M103.8,64.168c-2.637,0-4.525-1.2-5.212-3.329a7.524,7.524,0,0,1-.3-2.024c-.168-4.211.763-8.416,1.664-12.483q.112-.5.222-1l1.277.281c-.073.334-.148.667-.222,1-.883,3.985-1.8,8.107-1.635,12.147a6.376,6.376,0,0,0,.242,1.676c.717,2.224,2.987,2.47,4.279,2.416,7.6-.308,15.308-.441,22.913-.4,3.851.021,7.753.088,11.595.2a74.32,74.32,0,0,0,7.729-.135c.379-.029.769-.034,1.148-.04,1.776-.025,2.89-.108,3.387-1.463a6.734,6.734,0,0,0,.056-3.242q-.067-.445-.132-.893a46.87,46.87,0,0,0-1.98-9.214,2.609,2.609,0,0,0-.68-1.124,2.91,2.91,0,0,0-.712-.41,10.762,10.762,0,0,0-2.728-.8l.2-1.292a12.148,12.148,0,0,1,3.059.9,4.077,4.077,0,0,1,1.032.613,3.936,3.936,0,0,1,1.057,1.668,47.762,47.762,0,0,1,2.045,9.473c.044.3.087.6.132.892a7.769,7.769,0,0,1-.121,3.883c-.831,2.269-2.918,2.3-4.6,2.322-.375.005-.729.009-1.068.035a75.432,75.432,0,0,1-7.864.138c-3.833-.11-7.725-.178-11.566-.2-7.585-.042-15.275.093-22.853.4-.123.005-.244.008-.363.008" transform="translate(238.992 1093.975)" fill="#231c20"/>
      <path id="Path_125443" data-name="Path 125443" d="M136.325,49.069h0a.817.817,0,0,1-.818-.818V43.894a.818.818,0,1,1,1.635,0v4.358a.817.817,0,0,1-.818.818" transform="translate(250.391 1093.682)" fill="#395795"/>
      <path id="Path_125444" data-name="Path 125444" d="M100.279,49.069h0a.817.817,0,0,1-.818-.818V43.894a.818.818,0,0,1,1.635,0v4.358a.817.817,0,0,1-.818.818" transform="translate(239.359 1093.682)" fill="#395795"/>
      <path id="Path_125445" data-name="Path 125445" d="M147.029,42.34V63.379a3.1,3.1,0,0,1-3.1,3.1H103.274a3.1,3.1,0,0,1-3.1-3.1V42.34a3.1,3.1,0,0,1,3.1-3.1h40.652a3.1,3.1,0,0,1,3.1,3.1" transform="translate(239.576 1092.507)" fill="#395795"/>
      <path id="Path_125446" data-name="Path 125446" d="M111.547,63.607H128.69c-3.1-8.078-2.578-18.362-2.578-18.362H114.125s.526,10.284-2.578,18.362" transform="translate(243.057 1094.346)" fill="#fff"/>
      <path id="Path_125447" data-name="Path 125447" d="M100.441,51.429V42.391a2.887,2.887,0,0,1,2.882-2.885h40.656a2.888,2.888,0,0,1,2.884,2.885v9.038h.436V42.391a3.323,3.323,0,0,0-3.32-3.32H103.323a3.325,3.325,0,0,0-3.32,3.32v9.038Z" transform="translate(239.523 1092.456)" fill="#231c20"/>
      <path id="Path_125448" data-name="Path 125448" d="M141.153,45.078H105.076a3.324,3.324,0,0,0-3.32,3.321V61.592a3.325,3.325,0,0,0,2.138,3.1h38.442a3.327,3.327,0,0,0,2.138-3.1V48.4a3.325,3.325,0,0,0-3.321-3.321m2.885,16.514a2.888,2.888,0,0,1-2.885,2.885H105.076a2.888,2.888,0,0,1-2.885-2.885V48.4a2.888,2.888,0,0,1,2.885-2.885h36.077a2.888,2.888,0,0,1,2.885,2.885Z" transform="translate(240.061 1094.294)" fill="#231c20"/>
      <path id="Path_125449" data-name="Path 125449" d="M137.657,62.131H107.246a3.324,3.324,0,0,1-3.32-3.32V54.073a3.324,3.324,0,0,1,3.32-3.321h30.411a3.324,3.324,0,0,1,3.32,3.321v4.738a3.324,3.324,0,0,1-3.32,3.32M107.246,51.188a2.887,2.887,0,0,0-2.884,2.885v4.738a2.887,2.887,0,0,0,2.884,2.884h30.411a2.887,2.887,0,0,0,2.884-2.884V54.073a2.887,2.887,0,0,0-2.884-2.885Z" transform="translate(240.725 1096.031)" fill="#231c20"/>
      <rect id="Rectangle_24810" data-name="Rectangle 24810" width="1.089" height="4.032" transform="translate(370.805 1139.592)" fill="#ffd540"/>
      <rect id="Rectangle_24811" data-name="Rectangle 24811" width="1.09" height="4.032" transform="matrix(0.984, -0.177, 0.177, 0.984, 372.309, 1139.72)" fill="#ffd540"/>
      <rect id="Rectangle_24812" data-name="Rectangle 24812" width="1.089" height="4.032" transform="translate(350.1 1146.675)" fill="#ffd540"/>
      <rect id="Rectangle_24813" data-name="Rectangle 24813" width="1.09" height="4.032" transform="matrix(0.984, -0.177, 0.177, 0.984, 351.604, 1146.803)" fill="#ffd540"/>
      <rect id="Rectangle_24814" data-name="Rectangle 24814" width="1.089" height="4.032" transform="translate(359.58 1131.637)" fill="#ffd540"/>
      <rect id="Rectangle_24815" data-name="Rectangle 24815" width="1.089" height="4.032" transform="translate(361.541 1131.637)" fill="#ffd540"/>
      <path id="Path_125450" data-name="Path 125450" d="M121.069,48.312c0,.542-1.074.981-2.4.981s-2.4-.439-2.4-.981,1.072-.981,2.4-.981,2.4.439,2.4.981" transform="translate(244.504 1094.984)" fill="#395795"/>
    </g>
  </g>
</svg>
